<svg width="66" height="65" viewBox="0 0 66 65" fill="none" xmlns="http://www.w3.org/2000/svg">
<ellipse cx="33.3229" cy="31.5287" rx="6.54653" ry="6.36467" fill="#FB9C2D"/>
<path d="M22.1963 20.3248C25.5447 17.9774 29.0697 18.9753 30.4137 19.7676C12.4884 33.505 11.3417 45.3557 15.0117 49.13C17.7546 51.951 24.8748 50.0509 27.8107 48.6198L32.6732 51.6902C30.0662 52.8697 17.6149 59.207 10.9133 51.8322C2.33376 42.3907 18.0108 23.2591 22.1963 20.3248Z" fill="#FB9C2D"/>
<path d="M51.8328 15.8971C55.9874 25.1566 43.5343 38.7308 35.8932 44.3849C36.8563 45.3753 39.7507 46.6791 43.6241 43.9708C48.4658 40.5853 63.8866 21.6985 55.1503 12.3919C48.1612 4.94667 34.888 11.232 29.0611 15.3201C30.5231 15.9229 32.7079 17.3549 33.6815 17.9808C43.9104 11.2562 50.2111 13.5858 51.8328 15.8971Z" fill="#FB9C2D"/>
<path d="M20.906 42.587C18.4915 39.3317 19.5179 35.9046 20.3329 34.5979C34.4628 52.0253 46.6521 53.1401 50.5343 49.5721C53.4358 46.9054 51.4815 39.9829 50.0095 37.1285L53.276 32.6057C54.4892 35.1403 60.8992 47.0411 53.3137 53.5566C43.6024 61.8978 23.9242 46.6562 20.906 42.587Z" fill="#FB9C2D"/>
<path d="M16.3518 13.7738C25.8759 9.73461 39.838 21.8418 45.6536 29.2706C46.6723 28.3343 48.0133 25.5203 45.2276 21.7545C41.7455 17.0473 22.319 2.05487 12.7465 10.5485C6.65752 15.9512 9.39785 25.2102 12.8901 31.6252C13.7092 30.36 15.2067 28.0705 15.9307 27.1062C12.3149 19.6995 14.3401 15.1079 16.3518 13.7738Z" fill="#FB9C2D"/>
<path d="M63.364 31.8234C63.364 48.0422 49.8403 61.1902 33.1581 61.1902C16.4758 61.1902 2.95215 48.0422 2.95215 31.8234C2.95215 15.6045 16.4758 2.45654 33.1581 2.45654C49.8403 2.45654 63.364 15.6045 63.364 31.8234ZM6.37513 31.8234C6.37513 46.2043 18.3663 57.8623 33.1581 57.8623C47.9499 57.8623 59.941 46.2043 59.941 31.8234C59.941 17.4425 47.9499 5.78444 33.1581 5.78444C18.3663 5.78444 6.37513 17.4425 6.37513 31.8234Z" fill="#FB9C2D"/>
</svg>
