<svg xmlns="http://www.w3.org/2000/svg" width="100%" viewBox="0 0 24 25" fill="none" class="icon-1x1-medium"><g clip-path="url(#clip0_2727_116)"><path d="M21.6983 20.0769C21.0639 19.8166 20.5413 19.4067 20.5792 18.6216C20.6161 17.8376 20.0186 17.318 20.0186 17.318C20.0186 17.318 20.5413 15.6013 20.0555 14.184C19.5707 12.7645 17.9668 10.4904 16.736 8.77472C15.5072 7.05808 16.5505 5.08007 15.4323 2.54457C14.3121 0.00905751 11.4036 0.157674 9.83659 1.23989C8.26857 2.32012 8.75333 5.00524 8.82711 6.27608C8.90194 7.54279 8.86094 8.44571 8.71641 8.77368C8.56884 9.10165 7.56036 10.3048 6.88807 11.3112C6.21677 12.3177 5.73201 14.4073 5.24521 15.2652C4.76045 16.123 5.09659 16.906 5.09659 16.906C5.09659 16.906 4.76045 17.0167 4.49908 17.5793C4.23772 18.1368 3.71609 18.3982 2.78349 18.5827C1.85088 18.7692 1.85088 19.3687 2.07428 20.04C2.29872 20.7103 2.07532 21.0854 1.81396 21.9412C1.5526 22.7969 2.85832 23.0603 4.12607 23.2069C5.39487 23.3575 6.81224 24.1784 8.00725 24.3271C9.19918 24.4767 9.57324 23.5071 9.57324 23.5071C9.57324 23.5071 10.9158 23.2069 12.3322 23.172C13.7506 23.1341 15.0911 23.4702 15.0911 23.4702C15.0911 23.4702 15.3525 24.0667 15.8373 24.327C16.3231 24.5884 17.3674 24.6263 18.0387 23.9191C18.711 23.2089 20.5014 22.3152 21.5078 21.7546C22.5172 21.193 22.3327 20.3363 21.6983 20.0769ZM12.9685 3.62688C13.608 3.62688 14.1246 4.26126 14.1246 5.04325C14.1246 5.59871 13.8653 6.07734 13.4871 6.30996C13.3908 6.26796 13.2893 6.22491 13.1817 6.17878C13.4092 6.06604 13.5712 5.77602 13.5712 5.43779C13.5712 4.99712 13.2985 4.6394 12.9613 4.6394C12.6283 4.6394 12.3546 4.99812 12.3546 5.43779C12.3546 5.60075 12.3936 5.75754 12.4602 5.88563C12.2614 5.80672 12.0779 5.73293 11.9344 5.67863C11.8566 5.48801 11.8125 5.27278 11.8125 5.0432C11.8125 4.26126 12.329 3.62688 12.9685 3.62688ZM12.8855 6.61332C13.2053 6.72402 13.5609 6.93208 13.524 7.13804C13.4861 7.34505 13.318 7.34505 12.8855 7.6095C12.452 7.87186 11.5132 8.45397 11.2129 8.49189C10.9106 8.5298 10.7425 8.36071 10.4227 8.1547C10.103 7.94769 9.5014 7.45675 9.65306 7.19544C9.65306 7.19544 10.1214 6.83672 10.3274 6.64919C10.5344 6.46062 11.0613 6.01068 11.381 6.06912C11.7008 6.12343 12.5658 6.50058 12.8855 6.61332ZM10.0026 3.85133C10.5068 3.85133 10.9167 4.45187 10.9167 5.19287C10.9167 5.32918 10.9034 5.45523 10.8778 5.57719C10.7548 5.61919 10.6298 5.68684 10.5088 5.78933C10.4474 5.83955 10.393 5.88668 10.3407 5.93381C10.4207 5.7842 10.4524 5.57101 10.4166 5.34657C10.3489 4.94177 10.0794 4.64658 9.81189 4.68862C9.54544 4.73476 9.38452 5.09856 9.45218 5.50545C9.52083 5.91234 9.78937 6.20748 10.0558 6.16339C10.0712 6.1603 10.0856 6.15621 10.1009 6.15108C9.97077 6.27613 9.85085 6.38375 9.72889 6.47492C9.35996 6.30378 9.08938 5.79441 9.08938 5.19177C9.08943 4.45088 9.49831 3.85133 10.0026 3.85133ZM9.01768 22.6996C8.89881 23.2346 8.2726 23.623 8.2726 23.623C7.70484 23.8013 6.12655 23.1167 5.41117 22.8164C4.69683 22.5202 2.8777 22.428 2.63891 22.1636C2.40216 21.893 2.75778 21.2976 2.849 20.7328C2.93714 20.164 2.67069 19.8084 2.75883 19.42C2.849 19.0336 4.01119 19.0336 4.45704 18.7661C4.90488 18.4966 4.99406 17.7218 5.35173 17.5138C5.7094 17.3037 6.3643 18.0488 6.63279 18.4679C6.90028 18.883 7.91384 20.6724 8.331 21.1193C8.74915 21.5661 9.13656 22.1646 9.01768 22.6996ZM15.6147 17.5015C15.5071 18.0272 15.5071 19.9273 15.5071 19.9273C15.5071 19.9273 14.3511 21.5292 12.5586 21.7915C10.7682 22.0539 9.87242 21.8653 9.87242 21.8653L8.86598 20.7103C8.86598 20.7103 9.64793 20.5966 9.53727 19.8136C9.42453 19.0306 7.15038 17.9483 6.7394 16.9778C6.33047 16.0093 6.66562 14.3665 7.18829 13.5455C7.70997 12.7256 8.04407 10.9362 8.56675 10.3377C9.08943 9.74325 9.49836 8.47445 9.31183 7.91386C9.31183 7.91386 10.431 9.25744 11.213 9.03504C11.996 8.81059 13.7516 7.50388 14.0108 7.72937C14.2711 7.95382 16.5095 12.8762 16.7318 14.4432C16.9563 16.0092 16.5822 17.2022 16.5822 17.2022C16.5822 17.2022 15.7254 16.9788 15.6147 17.5015ZM21.3396 21.0157C20.9911 21.3355 19.0521 22.1185 18.471 22.7293C17.893 23.335 17.1376 23.8279 16.6754 23.6845C16.2101 23.5379 15.8053 22.9015 16.0082 21.9729C16.2101 21.0475 16.3854 20.0329 16.3567 19.4528C16.328 18.8727 16.2101 18.0887 16.3567 17.9729C16.5012 17.8601 16.7318 17.9165 16.7318 17.9165C16.7318 17.9165 16.618 19.0162 17.2831 19.3083C17.9483 19.5953 18.9055 19.1925 19.1955 18.9004C19.4866 18.6124 19.6895 18.1779 19.6895 18.1779C19.6895 18.1779 19.9785 18.3245 19.9498 18.7867C19.9211 19.2499 20.1517 19.9181 20.5883 20.1487C21.0219 20.3773 21.688 20.698 21.3396 21.0157Z" fill="white"></path></g></svg>