<svg width="20" height="20" viewBox="0 0 20 20" fill="none" xmlns="http://www.w3.org/2000/svg">
<mask id="mask0_4398_4529" style="mask-type:alpha" maskUnits="userSpaceOnUse" x="0" y="0" width="20" height="20">
<rect width="20" height="20" fill="#D9D9D9"/>
</mask>
<g mask="url(#mask0_4398_4529)">
<path d="M9.95854 15.0002C10.2502 15.0002 10.4967 14.8995 10.6981 14.6981C10.8995 14.4967 11.0002 14.2502 11.0002 13.9585C11.0002 13.6669 10.8995 13.4203 10.6981 13.219C10.4967 13.0176 10.2502 12.9169 9.95854 12.9169C9.66687 12.9169 9.42034 13.0176 9.21895 13.219C9.01756 13.4203 8.91687 13.6669 8.91687 13.9585C8.91687 14.2502 9.01756 14.4967 9.21895 14.6981C9.42034 14.8995 9.66687 15.0002 9.95854 15.0002ZM9.20854 11.7919H10.7502C10.7502 11.3335 10.8023 10.9724 10.9065 10.7085C11.0106 10.4446 11.3058 10.0835 11.7919 9.6252C12.153 9.26409 12.4377 8.92034 12.646 8.59395C12.8544 8.26756 12.9585 7.8752 12.9585 7.41687C12.9585 6.63909 12.6738 6.04187 12.1044 5.6252C11.5349 5.20854 10.8613 5.0002 10.0835 5.0002C9.29187 5.0002 8.64951 5.20854 8.15645 5.6252C7.6634 6.04187 7.31965 6.54187 7.1252 7.1252L8.5002 7.66687C8.56965 7.41687 8.7259 7.14604 8.96895 6.85437C9.21201 6.5627 9.58354 6.41687 10.0835 6.41687C10.528 6.41687 10.8613 6.5384 11.0835 6.78145C11.3058 7.02451 11.4169 7.29187 11.4169 7.58354C11.4169 7.86131 11.3335 8.12173 11.1669 8.36479C11.0002 8.60784 10.7919 8.83354 10.5419 9.04187C9.93076 9.58354 9.55576 9.99326 9.41687 10.271C9.27798 10.5488 9.20854 11.0558 9.20854 11.7919ZM10.0002 18.3335C8.84742 18.3335 7.76409 18.1148 6.7502 17.6773C5.73631 17.2398 4.85437 16.646 4.10437 15.896C3.35437 15.146 2.76062 14.2641 2.32312 13.2502C1.88562 12.2363 1.66687 11.153 1.66687 10.0002C1.66687 8.84742 1.88562 7.76409 2.32312 6.7502C2.76062 5.73631 3.35437 4.85437 4.10437 4.10437C4.85437 3.35437 5.73631 2.76062 6.7502 2.32312C7.76409 1.88562 8.84742 1.66687 10.0002 1.66687C11.153 1.66687 12.2363 1.88562 13.2502 2.32312C14.2641 2.76062 15.146 3.35437 15.896 4.10437C16.646 4.85437 17.2398 5.73631 17.6773 6.7502C18.1148 7.76409 18.3335 8.84742 18.3335 10.0002C18.3335 11.153 18.1148 12.2363 17.6773 13.2502C17.2398 14.2641 16.646 15.146 15.896 15.896C15.146 16.646 14.2641 17.2398 13.2502 17.6773C12.2363 18.1148 11.153 18.3335 10.0002 18.3335ZM10.0002 16.6669C11.8613 16.6669 13.4377 16.021 14.7294 14.7294C16.021 13.4377 16.6669 11.8613 16.6669 10.0002C16.6669 8.13909 16.021 6.5627 14.7294 5.27104C13.4377 3.97937 11.8613 3.33354 10.0002 3.33354C8.13909 3.33354 6.5627 3.97937 5.27104 5.27104C3.97937 6.5627 3.33354 8.13909 3.33354 10.0002C3.33354 11.8613 3.97937 13.4377 5.27104 14.7294C6.5627 16.021 8.13909 16.6669 10.0002 16.6669Z" fill="#8D8D8D"/>
</g>
</svg>
