<svg width="40" height="40" viewBox="0 0 40 40" fill="none" xmlns="http://www.w3.org/2000/svg">
<path d="M30.9091 18.9092C30.6198 18.9092 30.3423 19.0241 30.1377 19.2287C29.9331 19.4333 29.8182 19.7107 29.8182 20.0001C29.8182 21.9419 29.2424 23.8402 28.1635 25.4548C27.0847 27.0693 25.5513 28.3278 23.7573 29.0709C21.9632 29.814 19.9891 30.0084 18.0846 29.6296C16.18 29.2508 14.4306 28.3157 13.0575 26.9426C11.6844 25.5695 10.7493 23.82 10.3705 21.9155C9.99164 20.011 10.1861 18.0368 10.9292 16.2428C11.6723 14.4488 12.9307 12.9154 14.5453 11.8365C16.1599 10.7577 18.0581 10.1819 20 10.1819C21.6906 10.1788 23.3527 10.6173 24.8218 11.4539L23.5924 12.6833C23.4398 12.8359 23.336 13.0303 23.2939 13.2418C23.2518 13.4534 23.2734 13.6727 23.356 13.8721C23.4385 14.0714 23.5783 14.2417 23.7577 14.3616C23.937 14.4815 24.1479 14.5455 24.3636 14.5455H28.7273C29.0166 14.5455 29.2941 14.4306 29.4987 14.226C29.7032 14.0214 29.8182 13.7439 29.8182 13.4546V9.09098C29.8181 8.87525 29.7541 8.66438 29.6343 8.48502C29.5144 8.30566 29.344 8.16588 29.1447 8.08333C28.9454 8.00078 28.7261 7.97917 28.5145 8.02125C28.3029 8.06332 28.1086 8.16718 27.956 8.3197L26.4167 9.85461C24.4989 8.63606 22.2722 7.99248 20 8.00007C17.6266 8.00007 15.3066 8.70385 13.3332 10.0224C11.3598 11.341 9.8217 13.2151 8.91345 15.4079C8.0052 17.6006 7.76756 20.0134 8.23058 22.3411C8.6936 24.6689 9.83649 26.8071 11.5147 28.4853C13.193 30.1636 15.3311 31.3065 17.6589 31.7695C19.9867 32.2325 22.3995 31.9949 24.5922 31.0866C26.7849 30.1784 28.6591 28.6403 29.9776 26.6669C31.2962 24.6935 32 22.3734 32 20.0001C32 19.7107 31.8851 19.4333 31.6805 19.2287C31.4759 19.0241 31.1984 18.9092 30.9091 18.9092Z" fill="white"/>
</svg>
