<svg width="48" height="49" viewBox="0 0 48 49" fill="none" xmlns="http://www.w3.org/2000/svg">
<g filter="url(#filter0_i_4779_87)">
<rect y="0.631836" width="48" height="48" rx="24" fill="#1A56CB" fill-opacity="0.01"/>
<rect x="0.369531" y="1.00137" width="47.2609" height="47.2609" rx="23.6305" stroke="url(#paint0_linear_4779_87)" stroke-width="0.739062"/>
<path d="M22.6406 32.3662V29.5537L25.4531 28.1475V25.335" stroke="#F4F4F4" stroke-miterlimit="10" stroke-linecap="round" stroke-linejoin="round"/>
<mask id="mask0_4779_87" style="mask-type:luminance" maskUnits="userSpaceOnUse" x="12" y="12" width="24" height="25">
<path d="M12 12.6318H36V36.6318H12V12.6318Z" fill="white"/>
</mask>
<g mask="url(#mask0_4779_87)">
<path d="M33.8906 32.3662V29.5537L31.0781 28.1475V25.335" stroke="#F4F4F4" stroke-miterlimit="10" stroke-linecap="round" stroke-linejoin="round"/>
</g>
<path d="M28.2656 25.335V32.3662" stroke="#F4F4F4" stroke-miterlimit="10" stroke-linecap="round" stroke-linejoin="round"/>
<mask id="mask1_4779_87" style="mask-type:luminance" maskUnits="userSpaceOnUse" x="12" y="12" width="24" height="25">
<path d="M12 12.6318H36V36.6318H12V12.6318Z" fill="white"/>
</mask>
<g mask="url(#mask1_4779_87)">
<path d="M33.8437 18.3037H23.7542C23.127 15.8818 20.9462 14.085 18.3281 14.085C15.2215 14.085 12.7031 16.6033 12.7031 19.71C12.7031 22.8166 15.2215 25.335 18.3281 25.335C20.9462 25.335 23.127 23.5381 23.7542 21.1162H23.9531L25.4062 22.5225L26.8125 21.1162L28.2187 22.5225L29.625 21.1162L31.0312 22.5225L32.4375 21.1162L33.8437 22.5225L35.2969 20.4131L33.8437 18.3037Z" stroke="#F4F4F4" stroke-miterlimit="10" stroke-linecap="round" stroke-linejoin="round"/>
<path d="M18.3281 19.71C18.3281 20.4866 17.6985 21.1162 16.9219 21.1162C16.1452 21.1162 15.5156 20.4866 15.5156 19.71C15.5156 18.9333 16.1452 18.3037 16.9219 18.3037C17.6985 18.3037 18.3281 18.9333 18.3281 19.71Z" stroke="#F4F4F4" stroke-miterlimit="10" stroke-linecap="round" stroke-linejoin="round"/>
<path d="M24.0469 33.7725C24.0469 34.5491 23.4173 35.1787 22.6406 35.1787C21.864 35.1787 21.2344 34.5491 21.2344 33.7725C21.2344 32.9958 21.864 32.3662 22.6406 32.3662C23.4173 32.3662 24.0469 32.9958 24.0469 33.7725Z" stroke="#F4F4F4" stroke-miterlimit="10" stroke-linecap="round" stroke-linejoin="round"/>
<path d="M29.6719 33.7725C29.6719 34.5491 29.0423 35.1787 28.2656 35.1787C27.489 35.1787 26.8594 34.5491 26.8594 33.7725C26.8594 32.9958 27.489 32.3662 28.2656 32.3662C29.0423 32.3662 29.6719 32.9958 29.6719 33.7725Z" stroke="#F4F4F4" stroke-miterlimit="10" stroke-linecap="round" stroke-linejoin="round"/>
<path d="M35.2969 33.7725C35.2969 34.5491 34.6673 35.1787 33.8906 35.1787C33.114 35.1787 32.4844 34.5491 32.4844 33.7725C32.4844 32.9958 33.114 32.3662 33.8906 32.3662C34.6673 32.3662 35.2969 32.9958 35.2969 33.7725Z" stroke="#F4F4F4" stroke-miterlimit="10" stroke-linecap="round" stroke-linejoin="round"/>
</g>
</g>
<defs>
<filter id="filter0_i_4779_87" x="-12" y="-11.3682" width="72" height="72" filterUnits="userSpaceOnUse" color-interpolation-filters="sRGB">
<feFlood flood-opacity="0" result="BackgroundImageFix"/>
<feBlend mode="normal" in="SourceGraphic" in2="BackgroundImageFix" result="shape"/>
<feColorMatrix in="SourceAlpha" type="matrix" values="0 0 0 0 0 0 0 0 0 0 0 0 0 0 0 0 0 0 127 0" result="hardAlpha"/>
<feOffset/>
<feGaussianBlur stdDeviation="11.0859"/>
<feComposite in2="hardAlpha" operator="arithmetic" k2="-1" k3="1"/>
<feColorMatrix type="matrix" values="0 0 0 0 0.202183 0 0 0 0 0.437991 0 0 0 0 0.897817 0 0 0 0.3 0"/>
<feBlend mode="normal" in2="shape" result="effect1_innerShadow_4779_87"/>
</filter>
<linearGradient id="paint0_linear_4779_87" x1="48" y1="0.631841" x2="-3.36346" y2="4.55098" gradientUnits="userSpaceOnUse">
<stop stop-color="#1A56CB" stop-opacity="0"/>
<stop offset="1" stop-color="#1A56CB"/>
</linearGradient>
</defs>
</svg>
