<svg width="48" height="49" viewBox="0 0 48 49" fill="none" xmlns="http://www.w3.org/2000/svg">
<g filter="url(#filter0_i_4779_118)">
<rect y="0.631836" width="48" height="48" rx="24" fill="#1A56CB" fill-opacity="0.01"/>
<rect x="0.369531" y="1.00137" width="47.2609" height="47.2609" rx="23.6305" stroke="url(#paint0_linear_4779_118)" stroke-width="0.739062"/>
<g clip-path="url(#clip0_4779_118)">
<mask id="mask0_4779_118" style="mask-type:luminance" maskUnits="userSpaceOnUse" x="12" y="12" width="24" height="25">
<path d="M12 12.6318H36V36.6318H12V12.6318Z" fill="white"/>
</mask>
<g mask="url(#mask0_4779_118)">
<path d="M18.375 30.3037H12.7031V13.335H21.1875C22.7408 13.335 24 14.5942 24 16.1475V17.5537H35.2969" stroke="#F4F4F4" stroke-miterlimit="10"/>
<path d="M23.6226 14.7412H35.2966V30.3037H29.6248" stroke="#F4F4F4" stroke-miterlimit="10"/>
<path d="M29.625 30.3037C29.625 33.4103 27.1066 35.9287 24 35.9287C20.8934 35.9287 18.375 33.4103 18.375 30.3037C18.375 27.1971 20.8934 24.6787 24 24.6787C27.1066 24.6787 29.625 27.1971 29.625 30.3037Z" stroke="#F4F4F4" stroke-miterlimit="10"/>
<path d="M22.0112 28.315L25.9887 32.2925" stroke="#F4F4F4" stroke-miterlimit="10"/>
<path d="M25.9887 28.315L22.0112 32.2925" stroke="#F4F4F4" stroke-miterlimit="10"/>
</g>
</g>
</g>
<defs>
<filter id="filter0_i_4779_118" x="-12" y="-11.3682" width="72" height="72" filterUnits="userSpaceOnUse" color-interpolation-filters="sRGB">
<feFlood flood-opacity="0" result="BackgroundImageFix"/>
<feBlend mode="normal" in="SourceGraphic" in2="BackgroundImageFix" result="shape"/>
<feColorMatrix in="SourceAlpha" type="matrix" values="0 0 0 0 0 0 0 0 0 0 0 0 0 0 0 0 0 0 127 0" result="hardAlpha"/>
<feOffset/>
<feGaussianBlur stdDeviation="11.0859"/>
<feComposite in2="hardAlpha" operator="arithmetic" k2="-1" k3="1"/>
<feColorMatrix type="matrix" values="0 0 0 0 0.202183 0 0 0 0 0.437991 0 0 0 0 0.897817 0 0 0 0.3 0"/>
<feBlend mode="normal" in2="shape" result="effect1_innerShadow_4779_118"/>
</filter>
<linearGradient id="paint0_linear_4779_118" x1="48" y1="0.631841" x2="-3.36346" y2="4.55098" gradientUnits="userSpaceOnUse">
<stop stop-color="#1A56CB" stop-opacity="0"/>
<stop offset="1" stop-color="#1A56CB"/>
</linearGradient>
<clipPath id="clip0_4779_118">
<rect width="24" height="24" fill="white" transform="translate(12 12.6318)"/>
</clipPath>
</defs>
</svg>
