<svg width="38" height="40" viewBox="0 0 38 40" fill="none" xmlns="http://www.w3.org/2000/svg">
<path d="M26.5 23.6C25.018 23.6 23.712 24.3291 22.8917 25.4378L15.7995 21.8062C15.9173 21.4048 16 20.9889 16 20.55C16 19.9547 15.8779 19.3888 15.6671 18.8682L23.0893 14.4018C23.9153 15.3712 25.1295 16 26.5 16C28.9815 16 31 13.9815 31 11.5C31 9.01855 28.9815 7 26.5 7C24.0186 7 22 9.01855 22 11.5C22 12.0719 22.1177 12.6143 22.3131 13.1179L14.8688 17.5974C14.0435 16.6568 12.8469 16.05 11.5 16.05C9.01855 16.05 7 18.0686 7 20.55C7 23.0315 9.01855 25.05 11.5 25.05C13.0065 25.05 14.3346 24.2996 15.1518 23.1597L22.2206 26.7794C22.0904 27.1997 22 27.6375 22 28.1C22 30.5815 24.0186 32.6 26.5 32.6C28.9815 32.6 31 30.5815 31 28.1C31 25.6186 28.9815 23.6 26.5 23.6Z" fill="white"/>
</svg>
