<svg width="57" height="56" viewBox="0 0 57 56" fill="none" xmlns="http://www.w3.org/2000/svg">
<mask id="mask0_4398_4469" style="mask-type:alpha" maskUnits="userSpaceOnUse" x="0" y="0" width="57" height="56">
<rect x="0.5" width="56" height="56" fill="#D9D9D9"/>
</mask>
<g mask="url(#mask0_4398_4469)">
<path d="M26.0501 29.6333L22.6668 26.3083C22.239 25.8805 21.7043 25.6666 21.0626 25.6666C20.421 25.6666 19.8668 25.8999 19.4001 26.3666C18.9724 26.7944 18.7585 27.3388 18.7585 27.9999C18.7585 28.661 18.9724 29.2055 19.4001 29.6333L24.4168 34.6499C24.8835 35.1166 25.4279 35.3499 26.0501 35.3499C26.6724 35.3499 27.2168 35.1166 27.6835 34.6499L37.6001 24.7333C38.0668 24.2666 38.2904 23.7221 38.271 23.0999C38.2515 22.4777 38.0279 21.9333 37.6001 21.4666C37.1335 20.9999 36.5793 20.7569 35.9376 20.7374C35.296 20.718 34.7418 20.9416 34.2751 21.4083L26.0501 29.6333ZM19.5168 50.7499L16.1335 45.0333L9.7168 43.6333C9.13346 43.5166 8.6668 43.2152 8.3168 42.7291C7.9668 42.243 7.83069 41.7083 7.90846 41.1249L8.55013 34.5333L4.17513 29.5166C3.78624 29.0888 3.5918 28.5833 3.5918 27.9999C3.5918 27.4166 3.78624 26.911 4.17513 26.4833L8.55013 21.4666L7.90846 14.8749C7.83069 14.2916 7.9668 13.7569 8.3168 13.2708C8.6668 12.7846 9.13346 12.4833 9.7168 12.3666L16.1335 10.9666L19.5168 5.24993C19.8279 4.74437 20.2557 4.40409 20.8001 4.22909C21.3446 4.05409 21.889 4.08326 22.4335 4.31659L28.5001 6.88326L34.5668 4.31659C35.1112 4.08326 35.6557 4.05409 36.2001 4.22909C36.7446 4.40409 37.1724 4.74437 37.4835 5.24993L40.8668 10.9666L47.2835 12.3666C47.8668 12.4833 48.3335 12.7846 48.6835 13.2708C49.0335 13.7569 49.1696 14.2916 49.0918 14.8749L48.4501 21.4666L52.8251 26.4833C53.214 26.911 53.4085 27.4166 53.4085 27.9999C53.4085 28.5833 53.214 29.0888 52.8251 29.5166L48.4501 34.5333L49.0918 41.1249C49.1696 41.7083 49.0335 42.243 48.6835 42.7291C48.3335 43.2152 47.8668 43.5166 47.2835 43.6333L40.8668 45.0333L37.4835 50.7499C37.1724 51.2555 36.7446 51.5958 36.2001 51.7708C35.6557 51.9458 35.1112 51.9166 34.5668 51.6833L28.5001 49.1166L22.4335 51.6833C21.889 51.9166 21.3446 51.9458 20.8001 51.7708C20.2557 51.5958 19.8279 51.2555 19.5168 50.7499Z" fill="#42BE65"/>
</g>
</svg>
