<svg xmlns="http://www.w3.org/2000/svg" width="100%" viewBox="0 0 24 25" fill="none" class="icon-1x1-medium"><g clip-path="url(#clip0_2679_763)"><path d="M9.43605 2.83223L0.436048 4.00124C0.185126 4.03364 -0.00204562 4.24828 1.688e-05 4.50126V11.5012C1.688e-05 11.7774 0.223892 12.0013 0.500033 12.0013H9.50003C9.77617 12.0013 10 11.7774 10 11.5012V3.32723C9.99986 3.1836 9.93794 3.04701 9.83003 2.95223C9.72133 2.85876 9.57841 2.81521 9.43605 2.83223Z" fill="white"></path><path d="M23.83 1.12635C23.7228 1.02979 23.5792 0.984227 23.436 1.00134L11.436 2.56635C11.1851 2.59874 10.9979 2.81338 11 3.06637V11.5014C11 11.7775 11.2239 12.0014 11.5 12.0014H23.5C23.7762 12.0014 24 11.7775 24 11.5014V1.50135C23.9998 1.35773 23.9378 1.22113 23.83 1.12635Z" fill="white"></path><path d="M9.50003 13.0012H0.500033C0.223892 13.0012 1.688e-05 13.2251 1.688e-05 13.5012V20.5012C-0.00204562 20.7542 0.185126 20.9688 0.436001 21.0012L9.436 22.1752C9.45733 22.1767 9.4787 22.1767 9.49999 22.1752C9.77613 22.1752 10 21.9513 10 21.6752V13.5012C10 13.2251 9.77617 13.0012 9.50003 13.0012Z" fill="white"></path><path d="M23.5 13.0012H11.5C11.2239 13.0012 11 13.2251 11 13.5012V21.9363C10.998 22.1892 11.1851 22.4039 11.436 22.4363L23.436 24.0013C23.4573 24.0027 23.4787 24.0027 23.5 24.0013C23.7761 24.0013 24 23.7774 24 23.5013V13.5012C24 13.2251 23.7762 13.0012 23.5 13.0012Z" fill="white"></path></g></svg>