<svg width="313" height="224" viewBox="0 0 313 224" fill="none" xmlns="http://www.w3.org/2000/svg">
<path d="M38.1574 95.3105L218.002 34.0505M42.2003 176.523L235.272 191.074" stroke="url(#paint0_linear_112_45)" stroke-width="0.92503" stroke-dasharray="0.93 3.7"/>
<g filter="url(#filter0_bdi_112_45)">
<ellipse cx="45.7909" cy="135.363" rx="39.7909" ry="40.8248" fill="url(#paint1_linear_112_45)" fill-opacity="0.24" shape-rendering="crispEdges"/>
<path d="M85.5254 135.363C85.5254 157.88 67.7343 176.132 45.7909 176.132C23.8474 176.132 6.0563 157.88 6.0563 135.363C6.0563 112.846 23.8474 94.5948 45.7909 94.5948C67.7343 94.5948 85.5254 112.846 85.5254 135.363Z" stroke="url(#paint2_linear_112_45)" stroke-width="0.112598" shape-rendering="crispEdges"/>
<path d="M85.5254 135.363C85.5254 157.88 67.7343 176.132 45.7909 176.132C23.8474 176.132 6.0563 157.88 6.0563 135.363C6.0563 112.846 23.8474 94.5948 45.7909 94.5948C67.7343 94.5948 85.5254 112.846 85.5254 135.363Z" stroke="white" stroke-opacity="0.2" stroke-width="0.112598" shape-rendering="crispEdges"/>
<path d="M85.5254 135.363C85.5254 157.88 67.7343 176.132 45.7909 176.132C23.8474 176.132 6.0563 157.88 6.0563 135.363C6.0563 112.846 23.8474 94.5948 45.7909 94.5948C67.7343 94.5948 85.5254 112.846 85.5254 135.363Z" stroke="url(#paint3_linear_112_45)" stroke-opacity="0.3" stroke-width="0.112598" shape-rendering="crispEdges"/>
</g>
<path d="M33.1601 130.485H31.7656V128.862H33.1601V130.485ZM33.1601 137.528H31.7656V135.904H33.1601V137.528ZM32.4628 136.631C31.7921 136.631 31.221 136.545 30.7496 136.372C30.2781 136.193 29.9195 135.931 29.6738 135.585C29.4281 135.234 29.3052 134.799 29.3052 134.281V134.221H30.7994V134.4C30.7994 134.606 30.8425 134.772 30.9289 134.898C31.0218 135.024 31.1878 135.117 31.4269 135.177C31.666 135.237 32.0113 135.267 32.4628 135.267C32.8613 135.267 33.1667 135.247 33.3792 135.207C33.5917 135.16 33.7378 135.091 33.8175 134.998C33.8972 134.905 33.937 134.785 33.937 134.639C33.937 134.433 33.8673 134.284 33.7279 134.191C33.5951 134.098 33.3593 134.022 33.0206 133.962L31.148 133.693C30.7496 133.626 30.4076 133.517 30.122 133.364C29.8431 133.211 29.6273 133.009 29.4746 132.757C29.3218 132.498 29.2455 132.185 29.2455 131.82C29.2455 131.568 29.2986 131.319 29.4049 131.073C29.5177 130.827 29.6937 130.608 29.9328 130.416C30.1718 130.217 30.4839 130.057 30.8691 129.938C31.2609 129.818 31.739 129.758 32.3035 129.758C32.9874 129.758 33.5486 129.858 33.9868 130.057C34.4318 130.25 34.7638 130.525 34.9829 130.884C35.2021 131.236 35.3116 131.644 35.3116 132.109V132.169H33.8076V132.029C33.8076 131.817 33.7611 131.644 33.6681 131.511C33.5818 131.379 33.4191 131.282 33.18 131.223C32.941 131.156 32.599 131.123 32.154 131.123C31.7955 131.123 31.5132 131.146 31.3074 131.193C31.1082 131.239 30.9654 131.309 30.8791 131.402C30.7927 131.495 30.7496 131.614 30.7496 131.76C30.7496 131.887 30.7761 131.993 30.8293 132.079C30.8824 132.159 30.9654 132.222 31.0783 132.268C31.1912 132.315 31.3406 132.355 31.5265 132.388L33.3992 132.687C33.8972 132.767 34.2923 132.896 34.5845 133.075C34.8833 133.255 35.0991 133.474 35.232 133.733C35.3648 133.985 35.4312 134.264 35.4312 134.569C35.4312 134.928 35.3316 135.267 35.1323 135.585C34.9331 135.898 34.6144 136.15 34.1761 136.342C33.7378 136.535 33.1667 136.631 32.4628 136.631ZM40.263 136.532H38.1314L35.3623 129.858H37.1652L39.1674 135.018H39.267L41.2392 129.858H43.0322L40.263 136.532ZM44.6449 136.532H43.1508V129.858H44.6449V136.532ZM48.6492 134.042H43.5691V132.707H48.6492V134.042ZM48.7986 131.203H43.5691V129.858H48.7986V131.203ZM52.2635 136.631C51.5929 136.631 51.0218 136.545 50.5503 136.372C50.0788 136.193 49.7202 135.931 49.4745 135.585C49.2288 135.234 49.106 134.799 49.106 134.281V134.221H50.6001V134.4C50.6001 134.606 50.6432 134.772 50.7296 134.898C50.8225 135.024 50.9886 135.117 51.2276 135.177C51.4667 135.237 51.812 135.267 52.2635 135.267C52.662 135.267 52.9675 135.247 53.1799 135.207C53.3924 135.16 53.5385 135.091 53.6182 134.998C53.6979 134.905 53.7378 134.785 53.7378 134.639C53.7378 134.433 53.668 134.284 53.5286 134.191C53.3958 134.098 53.16 134.022 52.8214 133.962L50.9487 133.693C50.5503 133.626 50.2083 133.517 49.9227 133.364C49.6438 133.211 49.428 133.009 49.2753 132.757C49.1226 132.498 49.0462 132.185 49.0462 131.82C49.0462 131.568 49.0993 131.319 49.2056 131.073C49.3185 130.827 49.4944 130.608 49.7335 130.416C49.9726 130.217 50.2847 130.057 50.6698 129.938C51.0616 129.818 51.5397 129.758 52.1042 129.758C52.7882 129.758 53.3493 129.858 53.7876 130.057C54.2325 130.25 54.5645 130.525 54.7836 130.884C55.0028 131.236 55.1124 131.644 55.1124 132.109V132.169H53.6083V132.029C53.6083 131.817 53.5618 131.644 53.4688 131.511C53.3825 131.379 53.2198 131.282 52.9807 131.223C52.7417 131.156 52.3997 131.123 51.9548 131.123C51.5962 131.123 51.3139 131.146 51.1081 131.193C50.9089 131.239 50.7661 131.309 50.6798 131.402C50.5934 131.495 50.5503 131.614 50.5503 131.76C50.5503 131.887 50.5768 131.993 50.63 132.079C50.6831 132.159 50.7661 132.222 50.879 132.268C50.9919 132.315 51.1413 132.355 51.3272 132.388L53.1999 132.687C53.6979 132.767 54.093 132.896 54.3852 133.075C54.684 133.255 54.8999 133.474 55.0327 133.733C55.1655 133.985 55.2319 134.264 55.2319 134.569C55.2319 134.928 55.1323 135.267 54.9331 135.585C54.7338 135.898 54.4151 136.15 53.9768 136.342C53.5385 136.535 52.9675 136.631 52.2635 136.631ZM57.1353 136.532H55.6411V129.858H57.2349L59.6255 133.016L60.5419 134.42H60.6515L60.5817 133.075V129.858H62.0759V136.532H60.4821L58.0218 133.344L57.1751 132.089H57.0755L57.1353 133.314V136.532Z" fill="#FB9C2D"/>
<g filter="url(#filter1_bd_112_45)">
<ellipse cx="228.653" cy="111.575" rx="77.3475" ry="79.3573" fill="url(#paint4_linear_112_45)" fill-opacity="0.24" shape-rendering="crispEdges"/>
<path d="M305.94 111.575C305.94 155.371 271.336 190.873 228.653 190.873C185.969 190.873 151.365 155.371 151.365 111.575C151.365 67.7787 185.969 32.2774 228.653 32.2774C271.336 32.2774 305.94 67.7787 305.94 111.575Z" stroke="url(#paint5_linear_112_45)" stroke-width="0.11944" shape-rendering="crispEdges"/>
</g>
<path d="M194.223 102.666H191.793V99.8365H194.223V102.666ZM194.223 114.941H191.793V112.111H194.223V114.941ZM193.008 113.378C191.839 113.378 190.844 113.228 190.022 112.927C189.2 112.614 188.575 112.157 188.147 111.555C187.719 110.942 187.505 110.184 187.505 109.281V109.177H190.109V109.489C190.109 109.848 190.184 110.137 190.335 110.357C190.497 110.577 190.786 110.739 191.203 110.843C191.619 110.948 192.221 111 193.008 111C193.703 111 194.235 110.965 194.605 110.895C194.976 110.814 195.23 110.693 195.369 110.531C195.508 110.369 195.578 110.16 195.578 109.906C195.578 109.547 195.456 109.287 195.213 109.125C194.982 108.963 194.571 108.829 193.98 108.725L190.716 108.257C190.022 108.141 189.426 107.95 188.928 107.684C188.442 107.417 188.066 107.064 187.8 106.625C187.534 106.173 187.401 105.629 187.401 104.993C187.401 104.553 187.493 104.119 187.678 103.691C187.875 103.262 188.182 102.88 188.598 102.545C189.015 102.198 189.559 101.92 190.23 101.711C190.913 101.503 191.747 101.399 192.73 101.399C193.922 101.399 194.901 101.573 195.664 101.92C196.44 102.255 197.019 102.736 197.4 103.361C197.782 103.974 197.973 104.686 197.973 105.496V105.6H195.352V105.357C195.352 104.987 195.271 104.686 195.109 104.455C194.958 104.223 194.675 104.055 194.258 103.951C193.841 103.835 193.245 103.777 192.47 103.777C191.845 103.777 191.353 103.818 190.994 103.899C190.647 103.98 190.398 104.101 190.248 104.264C190.097 104.426 190.022 104.634 190.022 104.889C190.022 105.108 190.068 105.294 190.161 105.444C190.254 105.583 190.398 105.693 190.595 105.774C190.792 105.855 191.052 105.924 191.376 105.982L194.64 106.503C195.508 106.642 196.197 106.868 196.706 107.18C197.227 107.493 197.603 107.875 197.835 108.326C198.066 108.766 198.182 109.252 198.182 109.784C198.182 110.409 198.008 111 197.661 111.555C197.314 112.099 196.758 112.539 195.994 112.875C195.23 113.21 194.235 113.378 193.008 113.378ZM206.603 113.204H202.888L198.062 101.573H201.204L204.694 110.566H204.867L208.305 101.573H211.43L206.603 113.204ZM213.772 113.204H210.855L215.942 101.573H219.657L224.779 113.204H221.793L218.598 105.757L217.886 103.951H217.695L216.984 105.757L213.772 113.204ZM221.827 110.635H213.633V108.291H221.827V110.635ZM227.643 113.204H225.039V101.573H227.817L231.983 107.076L233.581 109.524H233.772L233.65 107.18V101.573H236.254V113.204H233.476L229.188 107.649L227.713 105.461H227.539L227.643 107.597V113.204ZM239.424 113.204H236.507L241.594 101.573H245.31L250.431 113.204H247.445L244.25 105.757L243.539 103.951H243.348L242.636 105.757L239.424 113.204ZM247.48 110.635H239.285V108.291H247.48V110.635Z" fill="#1ACBAB"/>
<g filter="url(#filter2_b_112_45)">
<rect x="202.519" y="158.081" width="74.0928" height="50.9189" rx="5.1818" fill="#1A1104" fill-opacity="0.35"/>
<g filter="url(#filter3_bdi_112_45)">
<rect x="202.63" y="158.191" width="73.5968" height="50.6022" rx="5.07147" stroke="url(#paint6_linear_112_45)" stroke-opacity="0.3" stroke-width="0.220655" shape-rendering="crispEdges"/>
</g>
<path d="M215.878 179.297V184.227H215.23V180.551L213.591 184.227H213.135L211.489 180.544V184.227H210.841V179.297H211.539L213.363 183.372L215.187 179.297H215.878ZM216.735 182.261C216.735 181.862 216.816 181.513 216.978 181.213C217.139 180.909 217.36 180.674 217.64 180.508C217.925 180.342 218.241 180.259 218.588 180.259C218.93 180.259 219.227 180.332 219.478 180.48C219.73 180.627 219.918 180.812 220.041 181.035V180.323H220.697V184.227H220.041V183.501C219.913 183.729 219.721 183.919 219.464 184.071C219.212 184.218 218.918 184.291 218.581 184.291C218.234 184.291 217.92 184.206 217.64 184.035C217.36 183.864 217.139 183.624 216.978 183.315C216.816 183.007 216.735 182.655 216.735 182.261ZM220.041 182.268C220.041 181.973 219.982 181.717 219.863 181.498C219.744 181.28 219.583 181.114 219.379 181C219.179 180.881 218.958 180.822 218.716 180.822C218.474 180.822 218.253 180.879 218.053 180.993C217.854 181.107 217.695 181.273 217.576 181.491C217.457 181.71 217.398 181.966 217.398 182.261C217.398 182.56 217.457 182.821 217.576 183.045C217.695 183.263 217.854 183.432 218.053 183.55C218.253 183.664 218.474 183.721 218.716 183.721C218.958 183.721 219.179 183.664 219.379 183.55C219.583 183.432 219.744 183.263 219.863 183.045C219.982 182.821 220.041 182.562 220.041 182.268ZM222.441 180.957C222.555 180.734 222.716 180.56 222.925 180.437C223.139 180.313 223.398 180.252 223.702 180.252V180.921H223.531C222.804 180.921 222.441 181.316 222.441 182.104V184.227H221.792V180.323H222.441V180.957ZM226.631 184.227L225.099 182.503V184.227H224.45V178.955H225.099V182.054L226.602 180.323H227.507L225.669 182.268L227.514 184.227H226.631ZM231.68 182.125C231.68 182.249 231.673 182.38 231.658 182.517H228.538C228.561 182.902 228.692 183.204 228.93 183.422C229.172 183.636 229.464 183.743 229.806 183.743C230.086 183.743 230.319 183.679 230.504 183.55C230.694 183.417 230.827 183.242 230.903 183.023H231.601C231.497 183.398 231.288 183.705 230.974 183.942C230.661 184.175 230.271 184.291 229.806 184.291C229.435 184.291 229.103 184.208 228.808 184.042C228.519 183.876 228.291 183.641 228.124 183.337C227.958 183.028 227.875 182.672 227.875 182.268C227.875 181.864 227.956 181.51 228.117 181.206C228.279 180.902 228.504 180.67 228.794 180.508C229.089 180.342 229.426 180.259 229.806 180.259C230.176 180.259 230.504 180.339 230.789 180.501C231.074 180.662 231.293 180.886 231.445 181.171C231.601 181.451 231.68 181.769 231.68 182.125ZM231.01 181.99C231.01 181.743 230.955 181.532 230.846 181.356C230.737 181.175 230.587 181.04 230.397 180.95C230.212 180.855 230.005 180.807 229.777 180.807C229.45 180.807 229.169 180.912 228.937 181.121C228.709 181.33 228.578 181.62 228.545 181.99H231.01ZM233.326 180.857V183.159C233.326 183.349 233.367 183.484 233.448 183.565C233.528 183.641 233.668 183.679 233.868 183.679H234.345V184.227H233.761C233.4 184.227 233.129 184.144 232.949 183.978C232.768 183.812 232.678 183.539 232.678 183.159V180.857H232.172V180.323H232.678V179.34H233.326V180.323H234.345V180.857H233.326ZM236.788 181.741C236.788 181.256 236.897 180.822 237.116 180.437C237.334 180.047 237.631 179.743 238.007 179.525C238.387 179.306 238.807 179.197 239.268 179.197C239.809 179.197 240.282 179.328 240.686 179.589C241.089 179.85 241.384 180.221 241.569 180.7H240.792C240.655 180.401 240.455 180.171 240.194 180.009C239.937 179.848 239.629 179.767 239.268 179.767C238.921 179.767 238.61 179.848 238.334 180.009C238.059 180.171 237.843 180.401 237.686 180.7C237.529 180.995 237.451 181.342 237.451 181.741C237.451 182.135 237.529 182.482 237.686 182.781C237.843 183.075 238.059 183.303 238.334 183.465C238.61 183.626 238.921 183.707 239.268 183.707C239.629 183.707 239.937 183.629 240.194 183.472C240.455 183.311 240.655 183.08 240.792 182.781H241.569C241.384 183.256 241.089 183.624 240.686 183.885C240.282 184.142 239.809 184.27 239.268 184.27C238.807 184.27 238.387 184.163 238.007 183.949C237.631 183.731 237.334 183.429 237.116 183.045C236.897 182.66 236.788 182.225 236.788 181.741ZM242.292 182.261C242.292 181.862 242.373 181.513 242.534 181.213C242.696 180.909 242.917 180.674 243.197 180.508C243.482 180.342 243.798 180.259 244.144 180.259C244.486 180.259 244.783 180.332 245.035 180.48C245.287 180.627 245.474 180.812 245.598 181.035V180.323H246.253V184.227H245.598V183.501C245.47 183.729 245.277 183.919 245.021 184.071C244.769 184.218 244.475 184.291 244.137 184.291C243.791 184.291 243.477 184.206 243.197 184.035C242.917 183.864 242.696 183.624 242.534 183.315C242.373 183.007 242.292 182.655 242.292 182.261ZM245.598 182.268C245.598 181.973 245.539 181.717 245.42 181.498C245.301 181.28 245.14 181.114 244.935 181C244.736 180.881 244.515 180.822 244.273 180.822C244.03 180.822 243.81 180.879 243.61 180.993C243.411 181.107 243.251 181.273 243.133 181.491C243.014 181.71 242.955 181.966 242.955 182.261C242.955 182.56 243.014 182.821 243.133 183.045C243.251 183.263 243.411 183.432 243.61 183.55C243.81 183.664 244.03 183.721 244.273 183.721C244.515 183.721 244.736 183.664 244.935 183.55C245.14 183.432 245.301 183.263 245.42 183.045C245.539 182.821 245.598 182.562 245.598 182.268ZM247.998 181.042C248.126 180.819 248.316 180.634 248.568 180.487C248.824 180.335 249.121 180.259 249.458 180.259C249.805 180.259 250.118 180.342 250.399 180.508C250.684 180.674 250.907 180.909 251.068 181.213C251.23 181.513 251.311 181.862 251.311 182.261C251.311 182.655 251.23 183.007 251.068 183.315C250.907 183.624 250.684 183.864 250.399 184.035C250.118 184.206 249.805 184.291 249.458 184.291C249.126 184.291 248.831 184.218 248.575 184.071C248.323 183.919 248.131 183.731 247.998 183.508V186.08H247.349V180.323H247.998V181.042ZM250.648 182.261C250.648 181.966 250.589 181.71 250.47 181.491C250.351 181.273 250.19 181.107 249.985 180.993C249.786 180.879 249.565 180.822 249.323 180.822C249.085 180.822 248.864 180.881 248.66 181C248.461 181.114 248.299 181.282 248.176 181.506C248.057 181.724 247.998 181.978 247.998 182.268C247.998 182.562 248.057 182.821 248.176 183.045C248.299 183.263 248.461 183.432 248.66 183.55C248.864 183.664 249.085 183.721 249.323 183.721C249.565 183.721 249.786 183.664 249.985 183.55C250.19 183.432 250.351 183.263 250.47 183.045C250.589 182.821 250.648 182.56 250.648 182.261Z" fill="white"/>
<path d="M216.09 188.449H214.536V186.257H216.09V188.449ZM216.09 199.782H214.536V197.559H216.09V199.782ZM215.438 198.383C214.412 198.383 213.546 198.238 212.841 197.947C212.147 197.657 211.624 197.248 211.271 196.719C210.919 196.18 210.743 195.548 210.743 194.823V194.73H212.422V194.978C212.422 195.393 212.515 195.74 212.702 196.02C212.888 196.289 213.199 196.497 213.634 196.642C214.07 196.776 214.671 196.844 215.438 196.844C216.101 196.844 216.629 196.797 217.023 196.704C217.417 196.6 217.697 196.445 217.863 196.237C218.039 196.02 218.127 195.75 218.127 195.429C218.127 194.973 217.982 194.641 217.692 194.434C217.401 194.227 216.93 194.061 216.277 193.937L213.728 193.517C213.147 193.403 212.629 193.237 212.173 193.02C211.717 192.792 211.359 192.491 211.1 192.118C210.852 191.735 210.727 191.258 210.727 190.688C210.727 190.315 210.81 189.947 210.976 189.584C211.142 189.221 211.401 188.895 211.753 188.605C212.106 188.315 212.562 188.087 213.121 187.921C213.691 187.745 214.386 187.656 215.204 187.656C216.22 187.656 217.054 187.812 217.707 188.123C218.36 188.434 218.842 188.859 219.153 189.398C219.474 189.926 219.635 190.532 219.635 191.216V191.31H217.971V191.108C217.971 190.683 217.878 190.33 217.692 190.05C217.505 189.76 217.199 189.548 216.774 189.413C216.35 189.268 215.774 189.195 215.049 189.195C214.417 189.195 213.904 189.247 213.51 189.351C213.126 189.455 212.847 189.61 212.67 189.817C212.494 190.014 212.406 190.273 212.406 190.595C212.406 190.885 212.468 191.123 212.593 191.31C212.717 191.496 212.909 191.646 213.168 191.76C213.427 191.864 213.759 191.963 214.163 192.056L216.697 192.491C217.391 192.615 217.966 192.802 218.422 193.051C218.889 193.299 219.236 193.615 219.464 193.999C219.692 194.382 219.806 194.828 219.806 195.336C219.806 195.864 219.656 196.362 219.355 196.828C219.054 197.295 218.583 197.673 217.94 197.963C217.298 198.243 216.464 198.383 215.438 198.383ZM224.604 198.227H222.925V190.299H220.376V189.102H220.873C221.454 189.102 221.915 189.014 222.257 188.838C222.609 188.651 222.899 188.309 223.127 187.812H224.604V198.227ZM227.962 198.227H225.848V195.818H227.962V198.227ZM238.849 196.113H228.744V194.947L235.118 187.812H236.532L235.569 189.771H235.273L231.061 194.481V194.605H238.849V196.113ZM237.061 198.227H235.398V187.812H237.061V198.227ZM245.913 198.227H239.866V187.812H245.695C246.369 187.812 246.939 187.91 247.405 188.107C247.882 188.304 248.245 188.594 248.494 188.978C248.753 189.361 248.882 189.828 248.882 190.377C248.882 190.988 248.701 191.507 248.338 191.931C247.986 192.356 247.411 192.615 246.613 192.709V192.817C247.504 192.921 248.167 193.201 248.602 193.657C249.038 194.103 249.255 194.667 249.255 195.351C249.255 195.942 249.126 196.455 248.867 196.89C248.608 197.326 248.229 197.657 247.732 197.885C247.234 198.113 246.628 198.227 245.913 198.227ZM241.529 193.564V196.719H245.727C246.348 196.719 246.809 196.595 247.11 196.346C247.421 196.087 247.576 195.678 247.576 195.118C247.576 194.569 247.421 194.175 247.11 193.937C246.809 193.688 246.348 193.564 245.727 193.564H241.529ZM241.529 189.32V192.18H245.462C246.053 192.18 246.493 192.066 246.784 191.838C247.074 191.6 247.219 191.237 247.219 190.75C247.219 190.263 247.079 189.905 246.799 189.677C246.519 189.439 246.089 189.32 245.509 189.32H241.529Z" fill="white"/>
</g>
<g filter="url(#filter4_b_112_45)">
<rect x="194.182" y="9" width="73.0688" height="48.5472" rx="4.91668" fill="#1A1104" fill-opacity="0.35"/>
<g filter="url(#filter5_bdi_112_45)">
<rect x="194.286" y="9.10468" width="73.1597" height="48.6085" rx="4.812" stroke="url(#paint7_linear_112_45)" stroke-opacity="0.3" stroke-width="0.209366" shape-rendering="crispEdges"/>
</g>
<path d="M204.977 29.4602V29.9605H203.693V34.1722H203.078V29.9605H201.786V29.4602H204.977ZM207.35 34.2331C207.003 34.2331 206.688 34.1542 206.404 33.9965C206.125 33.8387 205.904 33.6156 205.741 33.3272C205.584 33.0342 205.505 32.6962 205.505 32.3131C205.505 31.9345 205.586 31.601 205.748 31.3126C205.915 31.0196 206.14 30.7965 206.424 30.6433C206.708 30.4855 207.026 30.4067 207.377 30.4067C207.729 30.4067 208.047 30.4855 208.331 30.6433C208.615 30.7965 208.838 31.0174 209 31.3058C209.167 31.5943 209.25 31.93 209.25 32.3131C209.25 32.6962 209.164 33.0342 208.993 33.3272C208.826 33.6156 208.599 33.8387 208.31 33.9965C208.022 34.1542 207.702 34.2331 207.35 34.2331ZM207.35 33.6923C207.571 33.6923 207.779 33.6404 207.972 33.5368C208.166 33.4331 208.322 33.2776 208.439 33.0703C208.561 32.863 208.621 32.6106 208.621 32.3131C208.621 32.0157 208.563 31.7633 208.446 31.556C208.328 31.3486 208.175 31.1954 207.986 31.0962C207.797 30.9926 207.592 30.9408 207.371 30.9408C207.145 30.9408 206.938 30.9926 206.749 31.0962C206.564 31.1954 206.415 31.3486 206.303 31.556C206.19 31.7633 206.134 32.0157 206.134 32.3131C206.134 32.6151 206.188 32.8697 206.296 33.0771C206.408 33.2844 206.557 33.4399 206.742 33.5435C206.927 33.6427 207.13 33.6923 207.35 33.6923ZM210.809 30.9746V33.1582C210.809 33.3385 210.848 33.4669 210.924 33.5435C211.001 33.6156 211.134 33.6517 211.323 33.6517H211.776V34.1722H211.222C210.879 34.1722 210.622 34.0934 210.451 33.9356C210.28 33.7779 210.194 33.5187 210.194 33.1582V30.9746H209.714V30.4675H210.194V29.5346H210.809V30.4675H211.776V30.9746H210.809ZM212.292 32.3064C212.292 31.9278 212.368 31.5965 212.522 31.3126C212.675 31.0241 212.884 30.801 213.15 30.6433C213.421 30.4855 213.72 30.4067 214.049 30.4067C214.374 30.4067 214.656 30.4765 214.894 30.6163C215.133 30.756 215.311 30.9317 215.429 31.1436V30.4675H216.05V34.1722H215.429V33.4827C215.307 33.699 215.124 33.8793 214.881 34.0235C214.642 34.1632 214.363 34.2331 214.043 34.2331C213.714 34.2331 213.416 34.152 213.15 33.9897C212.884 33.8275 212.675 33.5999 212.522 33.3069C212.368 33.014 212.292 32.6804 212.292 32.3064ZM215.429 32.3131C215.429 32.0337 215.372 31.7903 215.26 31.583C215.147 31.3757 214.994 31.2179 214.8 31.1098C214.611 30.9971 214.401 30.9408 214.171 30.9408C213.941 30.9408 213.732 30.9948 213.542 31.103C213.353 31.2112 213.202 31.3689 213.089 31.5762C212.977 31.7836 212.92 32.0269 212.92 32.3064C212.92 32.5903 212.977 32.8382 213.089 33.05C213.202 33.2573 213.353 33.4173 213.542 33.53C213.732 33.6382 213.941 33.6923 214.171 33.6923C214.401 33.6923 214.611 33.6382 214.8 33.53C214.994 33.4173 215.147 33.2573 215.26 33.05C215.372 32.8382 215.429 32.5926 215.429 32.3131ZM217.705 29.1695V34.1722H217.09V29.1695H217.705ZM222.05 34.2196C221.739 34.2196 221.46 34.1655 221.212 34.0573C220.969 33.9446 220.777 33.7914 220.637 33.5976C220.498 33.3993 220.425 33.1717 220.421 32.9148H221.077C221.099 33.1356 221.189 33.3227 221.347 33.4759C221.509 33.6246 221.744 33.699 222.05 33.699C222.343 33.699 222.573 33.6269 222.74 33.4827C222.911 33.3339 222.997 33.1447 222.997 32.9148C222.997 32.7345 222.947 32.588 222.848 32.4754C222.749 32.3627 222.625 32.2771 222.476 32.2185C222.327 32.1599 222.127 32.0968 221.874 32.0292C221.563 31.9481 221.313 31.8669 221.124 31.7858C220.939 31.7047 220.779 31.5785 220.644 31.4072C220.513 31.2315 220.448 30.9971 220.448 30.7041C220.448 30.4472 220.513 30.2196 220.644 30.0213C220.775 29.823 220.957 29.6698 221.192 29.5616C221.431 29.4535 221.703 29.3994 222.01 29.3994C222.451 29.3994 222.812 29.5098 223.091 29.7306C223.375 29.9515 223.535 30.2444 223.571 30.6095H222.895C222.873 30.4292 222.778 30.2715 222.611 30.1363C222.445 29.9965 222.224 29.9267 221.949 29.9267C221.692 29.9267 221.482 29.9943 221.32 30.1295C221.158 30.2602 221.077 30.445 221.077 30.6839C221.077 30.8551 221.124 30.9948 221.219 31.103C221.318 31.2112 221.437 31.2945 221.577 31.3531C221.721 31.4072 221.922 31.4703 222.179 31.5424C222.49 31.6281 222.74 31.7137 222.929 31.7993C223.118 31.8805 223.281 32.0089 223.416 32.1847C223.551 32.3559 223.619 32.5903 223.619 32.8878C223.619 33.1176 223.558 33.3339 223.436 33.5368C223.314 33.7396 223.134 33.9041 222.895 34.0303C222.656 34.1565 222.375 34.2196 222.05 34.2196ZM227.81 30.4675V34.1722H227.194V33.6246C227.077 33.8139 226.913 33.9627 226.701 34.0708C226.494 34.1745 226.264 34.2263 226.011 34.2263C225.723 34.2263 225.464 34.1677 225.234 34.0506C225.004 33.9289 224.821 33.7486 224.686 33.5097C224.556 33.2708 224.49 32.9802 224.49 32.6376V30.4675H225.099V32.5565C225.099 32.9216 225.191 33.2032 225.376 33.4016C225.561 33.5954 225.813 33.6923 226.133 33.6923C226.462 33.6923 226.721 33.5908 226.91 33.388C227.1 33.1852 227.194 32.89 227.194 32.5024V30.4675H227.81ZM229.463 31.1503C229.585 30.9385 229.765 30.7627 230.004 30.623C230.248 30.4788 230.529 30.4067 230.849 30.4067C231.178 30.4067 231.476 30.4855 231.742 30.6433C232.012 30.801 232.224 31.0241 232.377 31.3126C232.53 31.5965 232.607 31.9278 232.607 32.3064C232.607 32.6804 232.53 33.014 232.377 33.3069C232.224 33.5999 232.012 33.8275 231.742 33.9897C231.476 34.152 231.178 34.2331 230.849 34.2331C230.534 34.2331 230.254 34.1632 230.011 34.0235C229.772 33.8793 229.59 33.7013 229.463 33.4894V35.93H228.848V30.4675H229.463V31.1503ZM231.978 32.3064C231.978 32.0269 231.922 31.7836 231.809 31.5762C231.697 31.3689 231.543 31.2112 231.35 31.103C231.16 30.9948 230.951 30.9408 230.721 30.9408C230.496 30.9408 230.286 30.9971 230.092 31.1098C229.903 31.2179 229.75 31.3779 229.632 31.5898C229.52 31.7971 229.463 32.0382 229.463 32.3131C229.463 32.5926 229.52 32.8382 229.632 33.05C229.75 33.2573 229.903 33.4173 230.092 33.53C230.286 33.6382 230.496 33.6923 230.721 33.6923C230.951 33.6923 231.16 33.6382 231.35 33.53C231.543 33.4173 231.697 33.2573 231.809 33.05C231.922 32.8382 231.978 32.5903 231.978 32.3064ZM234.032 31.1503C234.154 30.9385 234.334 30.7627 234.573 30.623C234.816 30.4788 235.098 30.4067 235.418 30.4067C235.747 30.4067 236.044 30.4855 236.31 30.6433C236.581 30.801 236.793 31.0241 236.946 31.3126C237.099 31.5965 237.176 31.9278 237.176 32.3064C237.176 32.6804 237.099 33.014 236.946 33.3069C236.793 33.5999 236.581 33.8275 236.31 33.9897C236.044 34.152 235.747 34.2331 235.418 34.2331C235.102 34.2331 234.823 34.1632 234.58 34.0235C234.341 33.8793 234.158 33.7013 234.032 33.4894V35.93H233.417V30.4675H234.032V31.1503ZM236.547 32.3064C236.547 32.0269 236.491 31.7836 236.378 31.5762C236.265 31.3689 236.112 31.2112 235.918 31.103C235.729 30.9948 235.519 30.9408 235.289 30.9408C235.064 30.9408 234.855 30.9971 234.661 31.1098C234.471 31.2179 234.318 31.3779 234.201 31.5898C234.088 31.7971 234.032 32.0382 234.032 32.3131C234.032 32.5926 234.088 32.8382 234.201 33.05C234.318 33.2573 234.471 33.4173 234.661 33.53C234.855 33.6382 235.064 33.6923 235.289 33.6923C235.519 33.6923 235.729 33.6382 235.918 33.53C236.112 33.4173 236.265 33.2573 236.378 33.05C236.491 32.8382 236.547 32.5903 236.547 32.3064ZM238.601 29.1695V34.1722H237.985V29.1695H238.601ZM242.84 30.4675L240.609 35.9164H239.974L240.704 34.1317L239.21 30.4675H239.892L241.055 33.4692L242.205 30.4675H242.84Z" fill="white"/>
<path d="M205.716 47.1722H204.123V39.6497H201.704V38.514H202.176C202.727 38.514 203.164 38.4304 203.489 38.2632C203.823 38.0862 204.099 37.7617 204.315 37.2897H205.716V47.1722ZM215.23 47.1722H206.956V46.125C206.956 45.5153 207.044 44.9991 207.221 44.5762C207.398 44.1534 207.688 43.7896 208.091 43.4847C208.495 43.1799 209.035 42.9144 209.714 42.6882L212.074 41.877C212.477 41.7295 212.792 41.582 213.018 41.4345C213.244 41.287 213.406 41.1149 213.505 40.9182C213.613 40.7117 213.667 40.4659 213.667 40.1807C213.667 39.8366 213.583 39.5465 213.416 39.3105C213.259 39.0745 212.998 38.8975 212.634 38.7795C212.28 38.6615 211.808 38.6025 211.218 38.6025C210.56 38.6025 210.033 38.6811 209.64 38.8385C209.247 38.986 208.957 39.2072 208.77 39.5022C208.593 39.7972 208.504 40.166 208.504 40.6085V40.7707H206.941V40.6232C206.941 40.0136 207.088 39.4432 207.383 38.9122C207.678 38.3812 208.141 37.9535 208.77 37.629C209.409 37.3045 210.245 37.1422 211.277 37.1422C212.212 37.1422 212.969 37.2799 213.549 37.5552C214.139 37.8207 214.572 38.1845 214.847 38.6467C215.122 39.099 215.26 39.6202 215.26 40.2102C215.26 40.7412 215.147 41.1985 214.921 41.582C214.704 41.9655 214.385 42.29 213.962 42.5555C213.549 42.821 213.052 43.0422 212.472 43.2192L210.392 43.8535C209.95 44.001 209.596 44.1632 209.33 44.3402C209.075 44.5172 208.888 44.7287 208.77 44.9745C208.662 45.2203 208.608 45.5301 208.608 45.9037L210.997 45.7415H215.23V47.1722ZM220.894 47.3197C219.901 47.3197 219.05 47.1132 218.342 46.7002C217.634 46.2872 217.088 45.7022 216.705 44.945C216.331 44.178 216.144 43.2733 216.144 42.231C216.144 41.1788 216.331 40.2741 216.705 39.517C217.088 38.7598 217.634 38.1747 218.342 37.7617C219.05 37.3487 219.901 37.1422 220.894 37.1422C221.887 37.1422 222.737 37.3487 223.445 37.7617C224.153 38.1747 224.694 38.7598 225.068 39.517C225.451 40.2741 225.643 41.1788 225.643 42.231C225.643 43.2733 225.451 44.178 225.068 44.945C224.694 45.7022 224.153 46.2872 223.445 46.7002C222.737 47.1132 221.887 47.3197 220.894 47.3197ZM220.894 45.7857C221.592 45.7857 222.167 45.6628 222.619 45.417C223.082 45.1712 223.416 44.7877 223.622 44.2665C223.839 43.7355 223.947 43.057 223.947 42.231C223.947 41.405 223.839 40.7314 223.622 40.2102C223.416 39.6792 223.082 39.2908 222.619 39.045C222.167 38.7991 221.592 38.6762 220.894 38.6762C220.196 38.6762 219.62 38.7991 219.168 39.045C218.716 39.2908 218.376 39.6792 218.15 40.2102C217.934 40.7314 217.826 41.405 217.826 42.231C217.826 43.057 217.934 43.7355 218.15 44.2665C218.376 44.7877 218.716 45.1712 219.168 45.417C219.62 45.6628 220.196 45.7857 220.894 45.7857ZM228.418 47.1722H226.825V37.2897H228.993L231.84 43.0127L232.74 45.063H232.858L233.728 43.0127L236.545 37.2897H238.713V47.1722H237.12V41.11L237.179 39.6792H237.061L236.457 41.11L233.728 46.5822H231.81L229.081 41.11L228.477 39.6792H228.359L228.418 41.11V47.1722Z" fill="white"/>
</g>
<g filter="url(#filter6_b_112_45)">
<rect x="23.8648" y="161.747" width="42.1659" height="28.7304" rx="2.91627" fill="#1A1104" fill-opacity="0.35"/>
<g filter="url(#filter7_bdi_112_45)">
<rect x="23.9269" y="161.809" width="41.6427" height="28.0051" rx="2.85418" stroke="url(#paint8_linear_112_45)" stroke-opacity="0.3" stroke-width="0.124182" shape-rendering="crispEdges"/>
</g>
<path d="M31.3829 173.328V176.103H31.018V174.034L30.0958 176.103H29.8391L28.9129 174.03V176.103H28.548V173.328H28.9409L29.9674 175.622L30.994 173.328H31.3829ZM31.8654 174.996C31.8654 174.772 31.9109 174.575 32.0018 174.407C32.0927 174.236 32.217 174.103 32.3747 174.01C32.5351 173.916 32.7129 173.87 32.908 173.87C33.1005 173.87 33.2676 173.911 33.4092 173.994C33.5509 174.077 33.6565 174.181 33.726 174.307V173.906H34.0949V176.103H33.726V175.694C33.6538 175.822 33.5456 175.929 33.4012 176.015C33.2595 176.098 33.0938 176.139 32.904 176.139C32.7088 176.139 32.5324 176.091 32.3747 175.995C32.217 175.899 32.0927 175.764 32.0018 175.59C31.9109 175.416 31.8654 175.218 31.8654 174.996ZM33.726 175C33.726 174.835 33.6926 174.69 33.6258 174.567C33.5589 174.444 33.468 174.351 33.3531 174.287C33.2408 174.22 33.1165 174.186 32.9802 174.186C32.8438 174.186 32.7195 174.218 32.6073 174.283C32.495 174.347 32.4054 174.44 32.3386 174.563C32.2718 174.686 32.2384 174.831 32.2384 174.996C32.2384 175.165 32.2718 175.312 32.3386 175.437C32.4054 175.56 32.495 175.655 32.6073 175.722C32.7195 175.786 32.8438 175.818 32.9802 175.818C33.1165 175.818 33.2408 175.786 33.3531 175.722C33.468 175.655 33.5589 175.56 33.6258 175.437C33.6926 175.312 33.726 175.166 33.726 175ZM35.0765 174.262C35.1406 174.137 35.2315 174.039 35.3491 173.97C35.4694 173.9 35.6151 173.866 35.7862 173.866V174.242H35.69C35.281 174.242 35.0765 174.464 35.0765 174.908V176.103H34.7116V173.906H35.0765V174.262ZM37.4345 176.103L36.5723 175.133V176.103H36.2074V173.136H36.5723V174.88L37.4184 173.906H37.9277L36.8931 175L37.9317 176.103H37.4345ZM40.276 174.92C40.276 174.99 40.272 175.063 40.264 175.141H38.5077C38.5211 175.357 38.5946 175.527 38.7282 175.65C38.8646 175.77 39.029 175.83 39.2214 175.83C39.3792 175.83 39.5102 175.794 39.6144 175.722C39.7213 175.647 39.7962 175.548 39.839 175.425H40.2319C40.1731 175.637 40.0555 175.809 39.8791 175.943C39.7026 176.074 39.4834 176.139 39.2214 176.139C39.0129 176.139 38.8258 176.092 38.6601 175.999C38.497 175.905 38.3687 175.773 38.2751 175.602C38.1815 175.428 38.1348 175.228 38.1348 175C38.1348 174.773 38.1802 174.574 38.2711 174.403C38.362 174.232 38.489 174.101 38.652 174.01C38.8178 173.916 39.0076 173.87 39.2214 173.87C39.43 173.87 39.6144 173.915 39.7748 174.006C39.9352 174.097 40.0582 174.222 40.1437 174.383C40.2319 174.541 40.276 174.72 40.276 174.92ZM39.8991 174.844C39.8991 174.705 39.8684 174.586 39.8069 174.487C39.7454 174.385 39.6612 174.309 39.5543 174.258C39.45 174.205 39.3337 174.178 39.2054 174.178C39.0209 174.178 38.8632 174.237 38.7322 174.355C38.6039 174.472 38.5304 174.635 38.5117 174.844H39.8991ZM41.2028 174.206V175.502C41.2028 175.608 41.2255 175.685 41.271 175.73C41.3164 175.773 41.3953 175.794 41.5075 175.794H41.7762V176.103H41.4474C41.2442 176.103 41.0918 176.056 40.9903 175.963C40.8887 175.869 40.8379 175.715 40.8379 175.502V174.206H40.5532V173.906H40.8379V173.352H41.2028V173.906H41.7762V174.206H41.2028ZM43.151 174.704C43.151 174.431 43.2125 174.186 43.3355 173.97C43.4584 173.751 43.6255 173.579 43.8367 173.457C44.0506 173.334 44.2871 173.272 44.5465 173.272C44.8512 173.272 45.1172 173.346 45.3444 173.493C45.5716 173.64 45.7374 173.848 45.8416 174.118H45.4046C45.327 173.95 45.2148 173.82 45.0677 173.729C44.9234 173.638 44.7496 173.593 44.5465 173.593C44.3513 173.593 44.1762 173.638 44.0212 173.729C43.8661 173.82 43.7445 173.95 43.6563 174.118C43.568 174.284 43.5239 174.479 43.5239 174.704C43.5239 174.925 43.568 175.121 43.6563 175.289C43.7445 175.455 43.8661 175.583 44.0212 175.674C44.1762 175.765 44.3513 175.81 44.5465 175.81C44.7496 175.81 44.9234 175.766 45.0677 175.678C45.2148 175.587 45.327 175.457 45.4046 175.289H45.8416C45.7374 175.556 45.5716 175.764 45.3444 175.911C45.1172 176.055 44.8512 176.127 44.5465 176.127C44.2871 176.127 44.0506 176.067 43.8367 175.947C43.6255 175.824 43.4584 175.654 43.3355 175.437C43.2125 175.221 43.151 174.976 43.151 174.704ZM46.2485 174.996C46.2485 174.772 46.2939 174.575 46.3848 174.407C46.4757 174.236 46.6 174.103 46.7577 174.01C46.9181 173.916 47.0959 173.87 47.291 173.87C47.4835 173.87 47.6506 173.911 47.7923 173.994C47.934 174.077 48.0396 174.181 48.1091 174.307V173.906H48.478V176.103H48.1091V175.694C48.0369 175.822 47.9286 175.929 47.7843 176.015C47.6426 176.098 47.4768 176.139 47.287 176.139C47.0919 176.139 46.9155 176.091 46.7577 175.995C46.6 175.899 46.4757 175.764 46.3848 175.59C46.2939 175.416 46.2485 175.218 46.2485 174.996ZM48.1091 175C48.1091 174.835 48.0756 174.69 48.0088 174.567C47.942 174.444 47.8511 174.351 47.7361 174.287C47.6239 174.22 47.4996 174.186 47.3632 174.186C47.2269 174.186 47.1026 174.218 46.9903 174.283C46.878 174.347 46.7885 174.44 46.7216 174.563C46.6548 174.686 46.6214 174.831 46.6214 174.996C46.6214 175.165 46.6548 175.312 46.7216 175.437C46.7885 175.56 46.878 175.655 46.9903 175.722C47.1026 175.786 47.2269 175.818 47.3632 175.818C47.4996 175.818 47.6239 175.786 47.7361 175.722C47.8511 175.655 47.942 175.56 48.0088 175.437C48.0756 175.312 48.1091 175.166 48.1091 175ZM49.4595 174.311C49.5317 174.185 49.6386 174.081 49.7803 173.998C49.9247 173.912 50.0917 173.87 50.2815 173.87C50.4767 173.87 50.6531 173.916 50.8108 174.01C50.9712 174.103 51.0969 174.236 51.1878 174.407C51.2787 174.575 51.3241 174.772 51.3241 174.996C51.3241 175.218 51.2787 175.416 51.1878 175.59C51.0969 175.764 50.9712 175.899 50.8108 175.995C50.6531 176.091 50.4767 176.139 50.2815 176.139C50.0944 176.139 49.9287 176.098 49.7843 176.015C49.6426 175.929 49.5344 175.824 49.4595 175.698V177.146H49.0946V173.906H49.4595V174.311ZM50.9512 174.996C50.9512 174.831 50.9178 174.686 50.8509 174.563C50.7841 174.44 50.6932 174.347 50.5783 174.283C50.466 174.218 50.3417 174.186 50.2053 174.186C50.0717 174.186 49.9474 174.22 49.8324 174.287C49.7202 174.351 49.6293 174.446 49.5598 174.571C49.4929 174.694 49.4595 174.837 49.4595 175C49.4595 175.166 49.4929 175.312 49.5598 175.437C49.6293 175.56 49.7202 175.655 49.8324 175.722C49.9474 175.786 50.0717 175.818 50.2053 175.818C50.3417 175.818 50.466 175.786 50.5783 175.722C50.6932 175.655 50.7841 175.56 50.8509 175.437C50.9178 175.312 50.9512 175.165 50.9512 174.996Z" fill="white"/>
<path d="M28.4842 180.621L32.1237 179.23V180.122L29.3415 181.137V181.207L32.1237 182.222V183.114L28.4842 181.723V180.621ZM35.7146 178.6H34.8397V177.366H35.7146V178.6ZM35.7146 184.978H34.8397V183.727H35.7146V184.978ZM35.3471 184.191C34.7697 184.191 34.2827 184.109 33.8861 183.946C33.4953 183.782 33.2007 183.552 33.0024 183.254C32.8041 182.951 32.705 182.595 32.705 182.187V182.135H33.6499V182.275C33.6499 182.508 33.7023 182.703 33.8073 182.861C33.9123 183.012 34.0873 183.129 34.3323 183.211C34.5772 183.286 34.9155 183.324 35.3471 183.324C35.7204 183.324 36.0179 183.298 36.2395 183.246C36.4611 183.187 36.6186 183.1 36.7119 182.983C36.8111 182.861 36.8607 182.709 36.8607 182.528C36.8607 182.272 36.779 182.085 36.6157 181.968C36.4524 181.852 36.187 181.758 35.8196 181.688L34.3848 181.452C34.0581 181.388 33.7665 181.295 33.5099 181.172C33.2532 181.044 33.052 180.875 32.9062 180.665C32.7662 180.449 32.6962 180.181 32.6962 179.86C32.6962 179.65 32.7429 179.443 32.8362 179.239C32.9295 179.035 33.0753 178.851 33.2737 178.688C33.472 178.524 33.7286 178.396 34.0435 178.303C34.3643 178.203 34.7551 178.154 35.2159 178.154C35.7875 178.154 36.257 178.241 36.6244 178.416C36.9919 178.591 37.2631 178.83 37.4381 179.134C37.6189 179.431 37.7093 179.772 37.7093 180.157V180.21H36.7732V180.096C36.7732 179.857 36.7207 179.659 36.6157 179.501C36.5107 179.338 36.3387 179.218 36.0995 179.142C35.8604 179.061 35.5367 179.02 35.1284 179.02C34.7726 179.02 34.4839 179.049 34.2623 179.107C34.0465 179.166 33.889 179.253 33.7898 179.37C33.6907 179.481 33.6411 179.627 33.6411 179.807C33.6411 179.971 33.6761 180.105 33.7461 180.21C33.8161 180.315 33.924 180.399 34.0698 180.464C34.2156 180.522 34.4022 180.577 34.6297 180.63L36.0558 180.875C36.4466 180.945 36.7703 181.05 37.0269 181.19C37.2894 181.33 37.4847 181.508 37.6131 181.723C37.7414 181.939 37.8055 182.19 37.8055 182.476C37.8055 182.773 37.721 183.053 37.5518 183.316C37.3827 183.578 37.1173 183.791 36.7557 183.954C36.3941 184.112 35.9245 184.191 35.3471 184.191ZM40.9872 184.191C40.4215 184.191 39.9403 184.118 39.5437 183.972C39.1471 183.826 38.8467 183.616 38.6425 183.342C38.4442 183.068 38.3451 182.732 38.3451 182.336V182.24H39.3075V182.336C39.3075 182.563 39.3658 182.753 39.4824 182.904C39.6049 183.05 39.7916 183.158 40.0424 183.228C40.2932 183.298 40.6139 183.333 41.0047 183.333C41.3605 183.333 41.6492 183.295 41.8709 183.219C42.0925 183.144 42.2587 183.024 42.3695 182.861C42.4804 182.692 42.5358 182.47 42.5358 182.196C42.5358 181.927 42.4804 181.712 42.3695 181.548C42.2646 181.385 42.1012 181.268 41.8796 181.198C41.658 181.123 41.3663 181.085 41.0047 181.085C40.5848 181.085 40.2436 181.123 39.9811 181.198C39.7187 181.268 39.5058 181.376 39.3425 181.522L39.0712 181.443L39.0625 180.962L39.4037 181.015C39.5028 180.904 39.6428 180.796 39.8236 180.691C40.0044 180.586 40.2232 180.501 40.4798 180.437C40.7364 180.367 41.0281 180.332 41.3547 180.332C41.8096 180.332 42.1975 180.405 42.5183 180.551C42.8449 180.691 43.0928 180.901 43.2619 181.181C43.4369 181.455 43.5244 181.793 43.5244 182.196C43.5244 182.598 43.4281 182.951 43.2357 183.254C43.0432 183.552 42.7574 183.782 42.3783 183.946C42.005 184.109 41.5413 184.191 40.9872 184.191ZM38.7213 178.241H43.2444V179.09H39.5437L39.2812 181.522L38.4063 181.461L38.7213 178.241ZM45.2139 184.103H44.269V178.241H45.5551L47.2436 181.636L47.7773 182.852H47.8472L48.3634 181.636L50.0344 178.241H51.3205V184.103H50.3756V180.507L50.4106 179.659H50.3407L49.982 180.507L48.3634 183.753H47.2261L45.6076 180.507L45.2489 179.659H45.1789L45.2139 180.507V184.103Z" fill="white"/>
</g>
<g filter="url(#filter8_b_112_45)">
<rect x="21.4833" y="79.8746" width="43.4534" height="28.7304" rx="2.91627" fill="#1A1104" fill-opacity="0.35"/>
<g filter="url(#filter9_bdi_112_45)">
<rect x="21.5454" y="79.9367" width="41.8935" height="28.0051" rx="2.85418" stroke="url(#paint9_linear_112_45)" stroke-opacity="0.3" stroke-width="0.124182" shape-rendering="crispEdges"/>
</g>
<path d="M27.8867 91.4357V91.7324H27.1248V94.2306H26.7599V91.7324H25.9941V91.4357H27.8867ZM29.2942 94.2667C29.0884 94.2667 28.9013 94.2199 28.7329 94.1263C28.5671 94.0328 28.4361 93.9004 28.3399 93.7294C28.2463 93.5556 28.1996 93.3551 28.1996 93.1279C28.1996 92.9033 28.2477 92.7055 28.3439 92.5344C28.4428 92.3607 28.5765 92.2283 28.7449 92.1374C28.9133 92.0439 29.1018 91.9971 29.3103 91.9971C29.5188 91.9971 29.7073 92.0439 29.8757 92.1374C30.0441 92.2283 30.1764 92.3593 30.2727 92.5304C30.3716 92.7015 30.421 92.9007 30.421 93.1279C30.421 93.3551 30.3702 93.5556 30.2686 93.7294C30.1697 93.9004 30.0347 94.0328 29.8636 94.1263C29.6926 94.2199 29.5028 94.2667 29.2942 94.2667ZM29.2942 93.9459C29.4252 93.9459 29.5482 93.9151 29.6632 93.8537C29.7781 93.7922 29.8703 93.7 29.9398 93.577C30.012 93.454 30.0481 93.3043 30.0481 93.1279C30.0481 92.9514 30.0133 92.8017 29.9438 92.6788C29.8743 92.5558 29.7835 92.4649 29.6712 92.4061C29.5589 92.3446 29.4373 92.3139 29.3063 92.3139C29.1726 92.3139 29.0496 92.3446 28.9374 92.4061C28.8278 92.4649 28.7395 92.5558 28.6727 92.6788C28.6059 92.8017 28.5725 92.9514 28.5725 93.1279C28.5725 93.307 28.6045 93.458 28.6687 93.581C28.7355 93.704 28.8238 93.7962 28.9334 93.8577C29.043 93.9165 29.1633 93.9459 29.2942 93.9459ZM31.3459 92.3339V93.6291C31.3459 93.736 31.3686 93.8122 31.4141 93.8577C31.4595 93.9004 31.5384 93.9218 31.6506 93.9218H31.9193V94.2306H31.5905C31.3873 94.2306 31.2349 94.1838 31.1334 94.0902C31.0318 93.9967 30.981 93.843 30.981 93.6291V92.3339H30.6963V92.0332H30.981V91.4798H31.3459V92.0332H31.9193V92.3339H31.3459ZM32.2251 93.1239C32.2251 92.8993 32.2705 92.7028 32.3614 92.5344C32.4523 92.3633 32.5766 92.231 32.7343 92.1374C32.8947 92.0439 33.0725 91.9971 33.2676 91.9971C33.4601 91.9971 33.6272 92.0385 33.7689 92.1214C33.9106 92.2043 34.0162 92.3085 34.0857 92.4342V92.0332H34.4546V94.2306H34.0857V93.8216C34.0135 93.9499 33.9052 94.0568 33.7609 94.1424C33.6192 94.2252 33.4534 94.2667 33.2636 94.2667C33.0685 94.2667 32.8921 94.2186 32.7343 94.1223C32.5766 94.0261 32.4523 93.8911 32.3614 93.7173C32.2705 93.5436 32.2251 93.3457 32.2251 93.1239ZM34.0857 93.1279C34.0857 92.9621 34.0522 92.8178 33.9854 92.6948C33.9186 92.5718 33.8277 92.4783 33.7127 92.4141C33.6005 92.3473 33.4762 92.3139 33.3398 92.3139C33.2035 92.3139 33.0792 92.346 32.9669 92.4101C32.8546 92.4743 32.7651 92.5678 32.6982 92.6908C32.6314 92.8138 32.598 92.9581 32.598 93.1239C32.598 93.2923 32.6314 93.4393 32.6982 93.565C32.7651 93.6879 32.8546 93.7828 32.9669 93.8497C33.0792 93.9138 33.2035 93.9459 33.3398 93.9459C33.4762 93.9459 33.6005 93.9138 33.7127 93.8497C33.8277 93.7828 33.9186 93.6879 33.9854 93.565C34.0522 93.4393 34.0857 93.2936 34.0857 93.1279ZM35.4361 91.2633V94.2306H35.0712V91.2633H35.4361ZM38.0132 94.2587C37.8288 94.2587 37.663 94.2266 37.516 94.1624C37.3717 94.0956 37.258 94.0047 37.1752 93.8898C37.0923 93.7721 37.0495 93.6371 37.0469 93.4848H37.4358C37.4492 93.6157 37.5026 93.7267 37.5962 93.8176C37.6924 93.9058 37.8315 93.9499 38.0132 93.9499C38.187 93.9499 38.3233 93.9071 38.4222 93.8216C38.5238 93.7334 38.5746 93.6211 38.5746 93.4848C38.5746 93.3778 38.5452 93.2909 38.4864 93.2241C38.4276 93.1573 38.3541 93.1065 38.2659 93.0717C38.1776 93.037 38.0587 92.9996 37.909 92.9595C37.7245 92.9113 37.5762 92.8632 37.4639 92.8151C37.3543 92.767 37.2594 92.6921 37.1792 92.5906C37.1017 92.4863 37.0629 92.3473 37.0629 92.1735C37.0629 92.0212 37.1017 91.8862 37.1792 91.7685C37.2567 91.6509 37.365 91.56 37.504 91.4959C37.6457 91.4317 37.8074 91.3996 37.9892 91.3996C38.2512 91.3996 38.465 91.4651 38.6308 91.5961C38.7992 91.7271 38.8941 91.9009 38.9155 92.1174H38.5145C38.5011 92.0105 38.445 91.9169 38.3461 91.8367C38.2471 91.7538 38.1162 91.7124 37.9531 91.7124C37.8007 91.7124 37.6764 91.7525 37.5802 91.8327C37.4839 91.9102 37.4358 92.0198 37.4358 92.1615C37.4358 92.2631 37.4639 92.346 37.52 92.4101C37.5788 92.4743 37.6497 92.5237 37.7325 92.5585C37.8181 92.5906 37.937 92.628 38.0894 92.6708C38.2739 92.7215 38.4222 92.7723 38.5345 92.8231C38.6468 92.8712 38.743 92.9474 38.8232 93.0517C38.9034 93.1533 38.9435 93.2923 38.9435 93.4687C38.9435 93.6051 38.9074 93.7334 38.8353 93.8537C38.7631 93.974 38.6561 94.0715 38.5145 94.1464C38.3728 94.2212 38.2057 94.2587 38.0132 94.2587ZM41.4293 92.0332V94.2306H41.0644V93.9058C40.9949 94.0181 40.8973 94.1063 40.7717 94.1704C40.6487 94.2319 40.5124 94.2627 40.3627 94.2627C40.1916 94.2627 40.0379 94.2279 39.9015 94.1584C39.7652 94.0862 39.6569 93.9793 39.5767 93.8376C39.4992 93.6959 39.4605 93.5235 39.4605 93.3204V92.0332H39.8213V93.2722C39.8213 93.4888 39.8761 93.6558 39.9857 93.7735C40.0953 93.8884 40.245 93.9459 40.4348 93.9459C40.63 93.9459 40.7837 93.8857 40.896 93.7654C41.0083 93.6452 41.0644 93.4701 41.0644 93.2402V92.0332H41.4293ZM42.4103 92.4382C42.4825 92.3125 42.5894 92.2083 42.7311 92.1254C42.8754 92.0399 43.0425 91.9971 43.2323 91.9971C43.4275 91.9971 43.6039 92.0439 43.7616 92.1374C43.922 92.231 44.0477 92.3633 44.1386 92.5344C44.2294 92.7028 44.2749 92.8993 44.2749 93.1239C44.2749 93.3457 44.2294 93.5436 44.1386 93.7173C44.0477 93.8911 43.922 94.0261 43.7616 94.1223C43.6039 94.2186 43.4275 94.2667 43.2323 94.2667C43.0452 94.2667 42.8795 94.2252 42.7351 94.1424C42.5934 94.0568 42.4852 93.9512 42.4103 93.8256V95.2732H42.0454V92.0332H42.4103V92.4382ZM43.902 93.1239C43.902 92.9581 43.8686 92.8138 43.8017 92.6908C43.7349 92.5678 43.644 92.4743 43.5291 92.4101C43.4168 92.346 43.2925 92.3139 43.1561 92.3139C43.0225 92.3139 42.8982 92.3473 42.7832 92.4141C42.6709 92.4783 42.5801 92.5732 42.5106 92.6988C42.4437 92.8218 42.4103 92.9648 42.4103 93.1279C42.4103 93.2936 42.4437 93.4393 42.5106 93.565C42.5801 93.6879 42.6709 93.7828 42.7832 93.8497C42.8982 93.9138 43.0225 93.9459 43.1561 93.9459C43.2925 93.9459 43.4168 93.9138 43.5291 93.8497C43.644 93.7828 43.7349 93.6879 43.8017 93.565C43.8686 93.4393 43.902 93.2923 43.902 93.1239ZM45.1201 92.4382C45.1923 92.3125 45.2992 92.2083 45.4409 92.1254C45.5852 92.0399 45.7523 91.9971 45.9421 91.9971C46.1373 91.9971 46.3137 92.0439 46.4714 92.1374C46.6318 92.231 46.7575 92.3633 46.8484 92.5344C46.9392 92.7028 46.9847 92.8993 46.9847 93.1239C46.9847 93.3457 46.9392 93.5436 46.8484 93.7173C46.7575 93.8911 46.6318 94.0261 46.4714 94.1223C46.3137 94.2186 46.1373 94.2667 45.9421 94.2667C45.755 94.2667 45.5893 94.2252 45.4449 94.1424C45.3032 94.0568 45.1949 93.9512 45.1201 93.8256V95.2732H44.7552V92.0332H45.1201V92.4382ZM46.6118 93.1239C46.6118 92.9581 46.5784 92.8138 46.5115 92.6908C46.4447 92.5678 46.3538 92.4743 46.2389 92.4101C46.1266 92.346 46.0023 92.3139 45.8659 92.3139C45.7323 92.3139 45.608 92.3473 45.493 92.4141C45.3807 92.4783 45.2898 92.5732 45.2203 92.6988C45.1535 92.8218 45.1201 92.9648 45.1201 93.1279C45.1201 93.2936 45.1535 93.4393 45.2203 93.565C45.2898 93.6879 45.3807 93.7828 45.493 93.8497C45.608 93.9138 45.7323 93.9459 45.8659 93.9459C46.0023 93.9459 46.1266 93.9138 46.2389 93.8497C46.3538 93.7828 46.4447 93.6879 46.5115 93.565C46.5784 93.4393 46.6118 93.2923 46.6118 93.1239ZM47.8299 91.2633V94.2306H47.465V91.2633H47.8299ZM50.3445 92.0332L49.0212 95.2651H48.6443L49.0773 94.2065L48.1912 92.0332H48.5962L49.2858 93.8136L49.9675 92.0332H50.3445Z" fill="white"/>
<path d="M31.0633 102.231H26.1552V101.609C26.1552 101.248 26.2077 100.942 26.3127 100.691C26.4177 100.44 26.5897 100.224 26.8288 100.043C27.068 99.8626 27.3888 99.7051 27.7912 99.571L29.191 99.0898C29.4302 99.0023 29.6168 98.9148 29.7509 98.8273C29.8851 98.7398 29.9813 98.6377 30.0397 98.5211C30.1038 98.3986 30.1359 98.2528 30.1359 98.0837C30.1359 97.8795 30.0863 97.7075 29.9872 97.5675C29.8938 97.4275 29.7393 97.3225 29.5235 97.2525C29.3135 97.1825 29.0335 97.1475 28.6836 97.1475C28.2928 97.1475 27.9808 97.1942 27.7475 97.2875C27.5142 97.375 27.3421 97.5062 27.2313 97.6812C27.1263 97.8562 27.0738 98.0749 27.0738 98.3374V98.4336H26.1464V98.3461C26.1464 97.9845 26.2339 97.6462 26.4089 97.3313C26.5839 97.0163 26.858 96.7626 27.2313 96.5701C27.6104 96.3776 28.1062 96.2814 28.7186 96.2814C29.2727 96.2814 29.7218 96.3631 30.0659 96.5264C30.4159 96.6839 30.6725 96.8997 30.8358 97.1738C30.9991 97.4421 31.0808 97.7512 31.0808 98.1012C31.0808 98.4161 31.0137 98.6873 30.8795 98.9148C30.7512 99.1423 30.5617 99.3347 30.3109 99.4922C30.0659 99.6497 29.7714 99.7809 29.4272 99.8859L28.1937 100.262C27.9312 100.35 27.7212 100.446 27.5637 100.551C27.4121 100.656 27.3013 100.781 27.2313 100.927C27.1671 101.073 27.1351 101.257 27.1351 101.478L28.5524 101.382H31.0633V102.231ZM34.2299 102.318C33.6817 102.318 33.2063 102.257 32.8039 102.134C32.4014 102.012 32.0894 101.825 31.8677 101.574C31.6519 101.324 31.544 101.009 31.544 100.63C31.544 100.361 31.6024 100.128 31.719 99.9297C31.8357 99.7313 32.0019 99.568 32.2177 99.4397C32.4335 99.3114 32.6843 99.2181 32.9701 99.1598V99.0898C32.5676 99.0256 32.2556 98.8798 32.034 98.6523C31.8182 98.4249 31.7103 98.1449 31.7103 97.8124C31.7103 97.3517 31.9232 96.9813 32.3489 96.7013C32.7747 96.4214 33.4017 96.2814 34.2299 96.2814C35.064 96.2814 35.691 96.4214 36.1109 96.7013C36.5367 96.9813 36.7496 97.3517 36.7496 97.8124C36.7496 98.1449 36.6417 98.4249 36.4259 98.6523C36.2101 98.8798 35.8951 99.0256 35.481 99.0898V99.1598C35.7843 99.2181 36.0409 99.3114 36.2509 99.4397C36.4667 99.568 36.63 99.7313 36.7408 99.9297C36.8575 100.128 36.9158 100.361 36.9158 100.63C36.9158 101.009 36.805 101.324 36.5833 101.574C36.3617 101.825 36.0497 102.012 35.6472 102.134C35.2506 102.257 34.7782 102.318 34.2299 102.318ZM34.2299 101.426C34.6557 101.426 34.994 101.394 35.2448 101.329C35.4956 101.259 35.6764 101.154 35.7872 101.015C35.9039 100.869 35.9622 100.682 35.9622 100.455C35.9622 100.239 35.9039 100.064 35.7872 99.9297C35.6764 99.7897 35.4927 99.6847 35.236 99.6147C34.9852 99.5447 34.6499 99.5097 34.2299 99.5097C33.8041 99.5097 33.4629 99.5447 33.2063 99.6147C32.9555 99.6847 32.7747 99.7897 32.6639 99.9297C32.5531 100.064 32.4977 100.239 32.4977 100.455C32.4977 100.682 32.5531 100.869 32.6639 101.015C32.7747 101.154 32.9555 101.259 33.2063 101.329C33.4629 101.394 33.8041 101.426 34.2299 101.426ZM34.2299 98.8623C34.609 98.8623 34.9152 98.8331 35.1485 98.7748C35.3818 98.7107 35.551 98.6173 35.656 98.4949C35.761 98.3724 35.8135 98.2149 35.8135 98.0224C35.8135 97.8416 35.7668 97.69 35.6735 97.5675C35.5802 97.4392 35.4168 97.3429 35.1835 97.2788C34.9561 97.2088 34.6382 97.1738 34.2299 97.1738C33.8216 97.1738 33.5038 97.2088 33.2763 97.2788C33.0488 97.3429 32.8884 97.4392 32.7951 97.5675C32.7018 97.69 32.6551 97.8416 32.6551 98.0224C32.6551 98.2149 32.7076 98.3724 32.8126 98.4949C32.9176 98.6173 33.0838 98.7107 33.3113 98.7748C33.5446 98.8331 33.8508 98.8623 34.2299 98.8623ZM38.4922 102.231H37.5473V96.3689H38.8334L40.5219 99.7634L41.0556 100.98H41.1255L41.6417 99.7634L43.3127 96.3689H44.5988V102.231H43.654V98.6348L43.6889 97.7862H43.619L43.2603 98.6348L41.6417 101.881H40.5044L38.8859 98.6348L38.5272 97.7862H38.4572L38.4922 98.6348V102.231Z" fill="white"/>
</g>
<defs>
<filter id="filter0_bdi_112_45" x="-0.00520468" y="90.0345" width="91.5921" height="93.6601" filterUnits="userSpaceOnUse" color-interpolation-filters="sRGB">
<feFlood flood-opacity="0" result="BackgroundImageFix"/>
<feGaussianBlur in="BackgroundImageFix" stdDeviation="1.5013"/>
<feComposite in2="SourceAlpha" operator="in" result="effect1_backgroundBlur_112_45"/>
<feColorMatrix in="SourceAlpha" type="matrix" values="0 0 0 0 0 0 0 0 0 0 0 0 0 0 0 0 0 0 127 0" result="hardAlpha"/>
<feOffset dy="1.5013"/>
<feGaussianBlur stdDeviation="3.0026"/>
<feComposite in2="hardAlpha" operator="out"/>
<feColorMatrix type="matrix" values="0 0 0 0 0.796078 0 0 0 0 0.517647 0 0 0 0 0.101961 0 0 0 0.12 0"/>
<feBlend mode="normal" in2="effect1_backgroundBlur_112_45" result="effect2_dropShadow_112_45"/>
<feBlend mode="normal" in="SourceGraphic" in2="effect2_dropShadow_112_45" result="shape"/>
<feColorMatrix in="SourceAlpha" type="matrix" values="0 0 0 0 0 0 0 0 0 0 0 0 0 0 0 0 0 0 127 0" result="hardAlpha"/>
<feOffset dy="1.5013"/>
<feGaussianBlur stdDeviation="2.25195"/>
<feComposite in2="hardAlpha" operator="arithmetic" k2="-1" k3="1"/>
<feColorMatrix type="matrix" values="0 0 0 0 0.796078 0 0 0 0 0.517647 0 0 0 0 0.101961 0 0 0 0.24 0"/>
<feBlend mode="normal" in2="shape" result="effect3_innerShadow_112_45"/>
</filter>
<filter id="filter1_bd_112_45" x="144.935" y="22.6226" width="167.435" height="171.495" filterUnits="userSpaceOnUse" color-interpolation-filters="sRGB">
<feFlood flood-opacity="0" result="BackgroundImageFix"/>
<feGaussianBlur in="BackgroundImageFix" stdDeviation="1.59254"/>
<feComposite in2="SourceAlpha" operator="in" result="effect1_backgroundBlur_112_45"/>
<feColorMatrix in="SourceAlpha" type="matrix" values="0 0 0 0 0 0 0 0 0 0 0 0 0 0 0 0 0 0 127 0" result="hardAlpha"/>
<feOffset dy="-3.22489"/>
<feGaussianBlur stdDeviation="3.18508"/>
<feComposite in2="hardAlpha" operator="out"/>
<feColorMatrix type="matrix" values="0 0 0 0 0.101961 0 0 0 0 0.796078 0 0 0 0 0.670588 0 0 0 0.12 0"/>
<feBlend mode="normal" in2="effect1_backgroundBlur_112_45" result="effect2_dropShadow_112_45"/>
<feBlend mode="normal" in="SourceGraphic" in2="effect2_dropShadow_112_45" result="shape"/>
</filter>
<filter id="filter2_b_112_45" x="199.949" y="155.511" width="79.2334" height="56.0595" filterUnits="userSpaceOnUse" color-interpolation-filters="sRGB">
<feFlood flood-opacity="0" result="BackgroundImageFix"/>
<feGaussianBlur in="BackgroundImageFix" stdDeviation="1.28514"/>
<feComposite in2="SourceAlpha" operator="in" result="effect1_backgroundBlur_112_45"/>
<feBlend mode="normal" in="SourceGraphic" in2="effect1_backgroundBlur_112_45" result="shape"/>
</filter>
<filter id="filter3_bdi_112_45" x="190.751" y="149.255" width="97.354" height="74.3593" filterUnits="userSpaceOnUse" color-interpolation-filters="sRGB">
<feFlood flood-opacity="0" result="BackgroundImageFix"/>
<feGaussianBlur in="BackgroundImageFix" stdDeviation="2.94207"/>
<feComposite in2="SourceAlpha" operator="in" result="effect1_backgroundBlur_112_45"/>
<feColorMatrix in="SourceAlpha" type="matrix" values="0 0 0 0 0 0 0 0 0 0 0 0 0 0 0 0 0 0 127 0" result="hardAlpha"/>
<feOffset dy="2.94207"/>
<feGaussianBlur stdDeviation="5.88413"/>
<feComposite in2="hardAlpha" operator="out"/>
<feColorMatrix type="matrix" values="0 0 0 0 0.796078 0 0 0 0 0.517647 0 0 0 0 0.101961 0 0 0 0.12 0"/>
<feBlend mode="normal" in2="effect1_backgroundBlur_112_45" result="effect2_dropShadow_112_45"/>
<feBlend mode="normal" in="SourceGraphic" in2="effect2_dropShadow_112_45" result="shape"/>
<feColorMatrix in="SourceAlpha" type="matrix" values="0 0 0 0 0 0 0 0 0 0 0 0 0 0 0 0 0 0 127 0" result="hardAlpha"/>
<feOffset dy="2.94207"/>
<feGaussianBlur stdDeviation="4.4131"/>
<feComposite in2="hardAlpha" operator="arithmetic" k2="-1" k3="1"/>
<feColorMatrix type="matrix" values="0 0 0 0 0.796078 0 0 0 0 0.517647 0 0 0 0 0.101961 0 0 0 0.24 0"/>
<feBlend mode="normal" in2="shape" result="effect3_innerShadow_112_45"/>
</filter>
<filter id="filter4_b_112_45" x="191.743" y="6.56122" width="78.2466" height="53.6954" filterUnits="userSpaceOnUse" color-interpolation-filters="sRGB">
<feFlood flood-opacity="0" result="BackgroundImageFix"/>
<feGaussianBlur in="BackgroundImageFix" stdDeviation="1.21939"/>
<feComposite in2="SourceAlpha" operator="in" result="effect1_backgroundBlur_112_45"/>
<feBlend mode="normal" in="SourceGraphic" in2="effect1_backgroundBlur_112_45" result="shape"/>
</filter>
<filter id="filter5_bdi_112_45" x="183.015" y="0.625377" width="95.7013" height="71.1502" filterUnits="userSpaceOnUse" color-interpolation-filters="sRGB">
<feFlood flood-opacity="0" result="BackgroundImageFix"/>
<feGaussianBlur in="BackgroundImageFix" stdDeviation="2.79154"/>
<feComposite in2="SourceAlpha" operator="in" result="effect1_backgroundBlur_112_45"/>
<feColorMatrix in="SourceAlpha" type="matrix" values="0 0 0 0 0 0 0 0 0 0 0 0 0 0 0 0 0 0 127 0" result="hardAlpha"/>
<feOffset dy="2.79154"/>
<feGaussianBlur stdDeviation="5.58308"/>
<feComposite in2="hardAlpha" operator="out"/>
<feColorMatrix type="matrix" values="0 0 0 0 0.796078 0 0 0 0 0.517647 0 0 0 0 0.101961 0 0 0 0.12 0"/>
<feBlend mode="normal" in2="effect1_backgroundBlur_112_45" result="effect2_dropShadow_112_45"/>
<feBlend mode="normal" in="SourceGraphic" in2="effect2_dropShadow_112_45" result="shape"/>
<feColorMatrix in="SourceAlpha" type="matrix" values="0 0 0 0 0 0 0 0 0 0 0 0 0 0 0 0 0 0 127 0" result="hardAlpha"/>
<feOffset dy="2.79154"/>
<feGaussianBlur stdDeviation="4.18731"/>
<feComposite in2="hardAlpha" operator="arithmetic" k2="-1" k3="1"/>
<feColorMatrix type="matrix" values="0 0 0 0 0.796078 0 0 0 0 0.517647 0 0 0 0 0.101961 0 0 0 0.24 0"/>
<feBlend mode="normal" in2="shape" result="effect3_innerShadow_112_45"/>
</filter>
<filter id="filter6_b_112_45" x="22.4183" y="160.301" width="45.059" height="31.6235" filterUnits="userSpaceOnUse" color-interpolation-filters="sRGB">
<feFlood flood-opacity="0" result="BackgroundImageFix"/>
<feGaussianBlur in="BackgroundImageFix" stdDeviation="0.723265"/>
<feComposite in2="SourceAlpha" operator="in" result="effect1_backgroundBlur_112_45"/>
<feBlend mode="normal" in="SourceGraphic" in2="effect1_backgroundBlur_112_45" result="shape"/>
</filter>
<filter id="filter7_bdi_112_45" x="17.2417" y="156.78" width="55.013" height="41.3754" filterUnits="userSpaceOnUse" color-interpolation-filters="sRGB">
<feFlood flood-opacity="0" result="BackgroundImageFix"/>
<feGaussianBlur in="BackgroundImageFix" stdDeviation="1.65577"/>
<feComposite in2="SourceAlpha" operator="in" result="effect1_backgroundBlur_112_45"/>
<feColorMatrix in="SourceAlpha" type="matrix" values="0 0 0 0 0 0 0 0 0 0 0 0 0 0 0 0 0 0 127 0" result="hardAlpha"/>
<feOffset dy="1.65577"/>
<feGaussianBlur stdDeviation="3.31153"/>
<feComposite in2="hardAlpha" operator="out"/>
<feColorMatrix type="matrix" values="0 0 0 0 0.796078 0 0 0 0 0.517647 0 0 0 0 0.101961 0 0 0 0.12 0"/>
<feBlend mode="normal" in2="effect1_backgroundBlur_112_45" result="effect2_dropShadow_112_45"/>
<feBlend mode="normal" in="SourceGraphic" in2="effect2_dropShadow_112_45" result="shape"/>
<feColorMatrix in="SourceAlpha" type="matrix" values="0 0 0 0 0 0 0 0 0 0 0 0 0 0 0 0 0 0 127 0" result="hardAlpha"/>
<feOffset dy="1.65577"/>
<feGaussianBlur stdDeviation="2.48365"/>
<feComposite in2="hardAlpha" operator="arithmetic" k2="-1" k3="1"/>
<feColorMatrix type="matrix" values="0 0 0 0 0.796078 0 0 0 0 0.517647 0 0 0 0 0.101961 0 0 0 0.24 0"/>
<feBlend mode="normal" in2="shape" result="effect3_innerShadow_112_45"/>
</filter>
<filter id="filter8_b_112_45" x="20.0368" y="78.4281" width="46.3465" height="31.6235" filterUnits="userSpaceOnUse" color-interpolation-filters="sRGB">
<feFlood flood-opacity="0" result="BackgroundImageFix"/>
<feGaussianBlur in="BackgroundImageFix" stdDeviation="0.723265"/>
<feComposite in2="SourceAlpha" operator="in" result="effect1_backgroundBlur_112_45"/>
<feBlend mode="normal" in="SourceGraphic" in2="effect1_backgroundBlur_112_45" result="shape"/>
</filter>
<filter id="filter9_bdi_112_45" x="14.8603" y="74.9073" width="55.2638" height="41.3754" filterUnits="userSpaceOnUse" color-interpolation-filters="sRGB">
<feFlood flood-opacity="0" result="BackgroundImageFix"/>
<feGaussianBlur in="BackgroundImageFix" stdDeviation="1.65577"/>
<feComposite in2="SourceAlpha" operator="in" result="effect1_backgroundBlur_112_45"/>
<feColorMatrix in="SourceAlpha" type="matrix" values="0 0 0 0 0 0 0 0 0 0 0 0 0 0 0 0 0 0 127 0" result="hardAlpha"/>
<feOffset dy="1.65577"/>
<feGaussianBlur stdDeviation="3.31153"/>
<feComposite in2="hardAlpha" operator="out"/>
<feColorMatrix type="matrix" values="0 0 0 0 0.796078 0 0 0 0 0.517647 0 0 0 0 0.101961 0 0 0 0.12 0"/>
<feBlend mode="normal" in2="effect1_backgroundBlur_112_45" result="effect2_dropShadow_112_45"/>
<feBlend mode="normal" in="SourceGraphic" in2="effect2_dropShadow_112_45" result="shape"/>
<feColorMatrix in="SourceAlpha" type="matrix" values="0 0 0 0 0 0 0 0 0 0 0 0 0 0 0 0 0 0 127 0" result="hardAlpha"/>
<feOffset dy="1.65577"/>
<feGaussianBlur stdDeviation="2.48365"/>
<feComposite in2="hardAlpha" operator="arithmetic" k2="-1" k3="1"/>
<feColorMatrix type="matrix" values="0 0 0 0 0.796078 0 0 0 0 0.517647 0 0 0 0 0.101961 0 0 0 0.24 0"/>
<feBlend mode="normal" in2="shape" result="effect3_innerShadow_112_45"/>
</filter>
<linearGradient id="paint0_linear_112_45" x1="248.496" y1="46.1897" x2="46.34" y2="131.798" gradientUnits="userSpaceOnUse">
<stop stop-color="#1ACBAB" stop-opacity="0.46"/>
<stop offset="1" stop-color="#FB9C2D" stop-opacity="0.51"/>
</linearGradient>
<linearGradient id="paint1_linear_112_45" x1="85.5817" y1="79.0532" x2="3.77316" y2="166.192" gradientUnits="userSpaceOnUse">
<stop stop-opacity="0"/>
<stop offset="1" stop-color="#CB841A"/>
</linearGradient>
<linearGradient id="paint2_linear_112_45" x1="45.7909" y1="94.5385" x2="45.7909" y2="176.188" gradientUnits="userSpaceOnUse">
<stop offset="0.171875" stop-color="#CB841A"/>
<stop offset="1" stop-color="#CB841A" stop-opacity="0.44"/>
</linearGradient>
<linearGradient id="paint3_linear_112_45" x1="45.7909" y1="90.7111" x2="45.7909" y2="176.188" gradientUnits="userSpaceOnUse">
<stop stop-color="#2737CF" stop-opacity="0"/>
<stop offset="1" stop-color="#BDFCFE"/>
</linearGradient>
<linearGradient id="paint4_linear_112_45" x1="229.68" y1="-1.19705" x2="183.006" y2="253.464" gradientUnits="userSpaceOnUse">
<stop stop-color="#1ACBAB"/>
<stop offset="1" stop-color="#162134"/>
</linearGradient>
<linearGradient id="paint5_linear_112_45" x1="228.653" y1="32.2177" x2="228.653" y2="190.932" gradientUnits="userSpaceOnUse">
<stop offset="0.171875" stop-color="#1ACBAB"/>
<stop offset="1" stop-color="#1ACBAB" stop-opacity="0"/>
</linearGradient>
<linearGradient id="paint6_linear_112_45" x1="239.428" y1="155.699" x2="239.428" y2="208.904" gradientUnits="userSpaceOnUse">
<stop offset="0.375" stop-color="#2737CF" stop-opacity="0"/>
<stop offset="1" stop-color="#BDFCFE"/>
</linearGradient>
<linearGradient id="paint7_linear_112_45" x1="230.866" y1="6.71166" x2="230.866" y2="57.8179" gradientUnits="userSpaceOnUse">
<stop offset="0.375" stop-color="#2737CF" stop-opacity="0"/>
<stop offset="1" stop-color="#BDFCFE"/>
</linearGradient>
<linearGradient id="paint8_linear_112_45" x1="44.7483" y1="160.429" x2="44.7483" y2="189.876" gradientUnits="userSpaceOnUse">
<stop offset="0.375" stop-color="#2737CF" stop-opacity="0"/>
<stop offset="1" stop-color="#BDFCFE"/>
</linearGradient>
<linearGradient id="paint9_linear_112_45" x1="42.4922" y1="78.5561" x2="42.4922" y2="108.004" gradientUnits="userSpaceOnUse">
<stop offset="0.375" stop-color="#2737CF" stop-opacity="0"/>
<stop offset="1" stop-color="#BDFCFE"/>
</linearGradient>
</defs>
</svg>
