<svg width="220" height="35" viewBox="0 0 220 35" fill="none" xmlns="http://www.w3.org/2000/svg">
<ellipse cx="18.1763" cy="17.1974" rx="3.57083" ry="3.47164" fill="#FB9C2D"/>
<path d="M12.1068 11.0859C13.9332 9.80552 15.856 10.3498 16.5891 10.782C6.8116 18.2751 6.18618 24.7391 8.18795 26.7979C9.6841 28.3366 13.5679 27.3002 15.1693 26.5196L17.8215 28.1944C16.3995 28.8377 9.60792 32.2944 5.95249 28.2718C1.27273 23.1219 9.82387 12.6865 12.1068 11.0859Z" fill="#FB9C2D"/>
<path d="M28.2722 8.67083C30.5384 13.7215 23.7458 21.1256 19.5779 24.2096C20.1032 24.7499 21.682 25.461 23.7947 23.9837C26.4357 22.1371 34.847 11.8352 30.0817 6.75891C26.2695 2.69787 19.0296 6.12625 15.8513 8.35612C16.6487 8.68491 17.8405 9.466 18.3715 9.8074C23.9509 6.13941 27.3877 7.41013 28.2722 8.67083Z" fill="#FB9C2D"/>
<path d="M11.4034 23.2292C10.0864 21.4536 10.6463 19.5842 11.0908 18.8715C18.798 28.3774 25.4467 28.9854 27.5643 27.0392C29.147 25.5847 28.081 21.8088 27.2781 20.2518L29.0598 17.7848C29.7215 19.1674 33.2179 25.6587 29.0803 29.2126C23.7833 33.7624 13.0497 25.4488 11.4034 23.2292Z" fill="#FB9C2D"/>
<path d="M8.91931 7.51289C14.1143 5.3097 21.7299 11.9136 24.9021 15.9657C25.4578 15.455 26.1892 13.9201 24.6697 11.866C22.7704 9.29842 12.1741 1.12075 6.95276 5.75363C3.63151 8.70057 5.12623 13.7509 7.03108 17.25C7.47786 16.5599 8.29471 15.3111 8.6896 14.7851C6.71734 10.7451 7.82202 8.24061 8.91931 7.51289Z" fill="#FB9C2D"/>
<path d="M34.5622 17.3582C34.5622 26.2048 27.1857 33.3764 18.0863 33.3764C8.98689 33.3764 1.61035 26.2048 1.61035 17.3582C1.61035 8.51153 8.98689 1.3399 18.0863 1.3399C27.1857 1.3399 34.5622 8.51153 34.5622 17.3582ZM3.47743 17.3582C3.47743 25.2023 10.018 31.5612 18.0863 31.5612C26.1546 31.5612 32.6952 25.2023 32.6952 17.3582C32.6952 9.51404 26.1546 3.15512 18.0863 3.15512C10.018 3.15512 3.47743 9.51404 3.47743 17.3582Z" fill="#FB9C2D"/>
<rect x="44" y="6" width="23.9327" height="23" rx="1.8375" fill="#FB9C2D"/>
<path d="M54.0309 24.3156C53.1215 24.3156 52.3368 24.0988 51.6767 23.665C51.0233 23.2249 50.5181 22.6002 50.1611 21.791C49.8109 20.9754 49.6357 20.0044 49.6357 18.878C49.6357 17.7581 49.8142 16.7968 50.1712 15.9941C50.5282 15.185 51.0368 14.5635 51.6969 14.1298C52.3638 13.6961 53.1519 13.4792 54.0612 13.4792C54.5933 13.4792 55.0749 13.5666 55.506 13.7414C55.9439 13.9097 56.3211 14.1427 56.6377 14.4405C56.9542 14.7383 57.1967 15.0846 57.3651 15.4795H57.4258V11.5858C57.4258 11.0291 57.5807 10.6115 57.8905 10.3332C58.2071 10.0548 58.6079 9.91565 59.0929 9.91565C59.5779 9.91565 59.9753 10.0548 60.2851 10.3332C60.6017 10.6115 60.76 11.0291 60.76 11.5858V22.7329C60.76 23.2766 60.6051 23.6877 60.2952 23.9661C59.9854 24.2379 59.588 24.3739 59.103 24.3739C58.618 24.3739 58.2172 24.2379 57.9006 23.9661C57.584 23.6942 57.4258 23.2831 57.4258 22.7329V22.3153H57.3651C57.2237 22.6973 56.9947 23.0404 56.6781 23.3446C56.3615 23.6424 55.9809 23.8787 55.5363 24.0534C55.0918 24.2282 54.59 24.3156 54.0309 24.3156ZM55.2433 21.7813C55.6946 21.7813 56.0853 21.668 56.4154 21.4414C56.7454 21.2084 56.998 20.875 57.1732 20.4413C57.355 20.0076 57.446 19.4962 57.446 18.9071C57.446 18.3116 57.355 17.797 57.1732 17.3632C56.998 16.9295 56.7454 16.5961 56.4154 16.3631C56.0853 16.1236 55.6946 16.0038 55.2433 16.0038C54.7853 16.0038 54.3913 16.1236 54.0612 16.3631C53.7379 16.5961 53.4853 16.9295 53.3034 17.3632C53.1283 17.7905 53.0407 18.3019 53.0407 18.8974C53.0407 19.493 53.1283 20.0076 53.3034 20.4413C53.4785 20.875 53.7311 21.2084 54.0612 21.4414C54.3913 21.668 54.7853 21.7813 55.2433 21.7813Z" fill="black"/>
<path d="M157.077 25.6679L154.963 19.8716H149.602L147.489 25.6679H145.04L150.994 9.22033H153.572L159.526 25.6679H157.077ZM152.283 12.4157L150.324 17.7909H154.216L152.283 12.4157Z" fill="white"/>
<path d="M161.835 25.6679V9.19556H164V25.6679H161.835Z" fill="white"/>
<path d="M76.4959 11.4249V16.3294H81.3158V18.5588H76.4959V25.6679H74.2793V9.19556H83.6614V11.4249H76.4959Z" fill="white"/>
<path d="M91.9039 25.5936V24.5532C91.5602 24.9 91.1221 25.189 90.5894 25.4202C90.0739 25.6514 89.5584 25.767 89.0429 25.767C88.3555 25.767 87.694 25.6431 87.0582 25.3954C86.4396 25.1312 85.8897 24.7679 85.4086 24.3055C84.9447 23.8431 84.5752 23.3147 84.3003 22.7202C84.0425 22.1092 83.9137 21.4652 83.9137 20.7881V13.2827H86.1819V20.7881C86.1819 21.5477 86.4654 22.2 87.0324 22.745C87.5995 23.2899 88.2696 23.5624 89.0429 23.5624C89.4037 23.5624 89.7646 23.4881 90.1254 23.3395C90.4863 23.1909 90.7956 22.9927 91.0533 22.745C91.6204 22.2 91.9039 21.5477 91.9039 20.7881V13.2827H94.1463V25.5936H91.9039Z" fill="white"/>
<path d="M102.975 16.9735C102.924 16.6762 102.812 16.3955 102.64 16.1313C102.314 15.5863 101.669 15.3139 100.707 15.3139C100.192 15.3139 99.7963 15.3717 99.5214 15.4872C99.1605 15.6194 98.8856 15.8093 98.6966 16.057C98.5247 16.3047 98.4388 16.5771 98.4388 16.8744C98.4388 17.2377 98.5763 17.568 98.8512 17.8652C99.1433 18.179 99.6159 18.3441 100.269 18.3606C101.42 18.4102 102.348 18.5423 103.053 18.7569C103.774 18.9716 104.324 19.3432 104.702 19.8716C105.097 20.4001 105.295 21.1432 105.295 22.101C105.295 23.0753 104.908 23.9175 104.135 24.6275C103.757 24.9743 103.31 25.2551 102.795 25.4697C102.296 25.6844 101.772 25.7918 101.223 25.7918H100.836C99.4612 25.7918 98.3529 25.4119 97.5109 24.6523C96.8236 24.0413 96.394 23.1826 96.2222 22.0762H98.5162C98.6021 22.4725 98.7739 22.7945 99.0317 23.0422C99.4269 23.4055 99.9767 23.5872 100.681 23.5872C100.87 23.5872 101.008 23.5789 101.094 23.5624C101.695 23.5294 102.168 23.3725 102.511 23.0918C102.855 22.7945 103.027 22.4312 103.027 22.0019C103.027 21.4074 102.838 21.0193 102.46 20.8377C102.082 20.656 101.351 20.5652 100.269 20.5652C98.9114 20.5652 97.8718 20.1523 97.1501 19.3267C96.5659 18.6991 96.2737 17.9065 96.2737 16.9487C96.2737 16.734 96.2823 16.5689 96.2995 16.4533C96.437 15.3799 96.8923 14.5625 97.6656 14.001C98.456 13.423 99.4956 13.1341 100.784 13.1341C101.729 13.1341 102.554 13.3322 103.259 13.7285C103.757 14.0258 104.187 14.4386 104.547 14.9671C104.891 15.4955 105.115 16.1561 105.218 16.9487L105.166 16.9735H102.975Z" fill="white"/>
<path d="M108.791 11.4992C108.465 11.4992 108.181 11.3919 107.941 11.1772C107.717 10.946 107.605 10.6735 107.605 10.3598C107.605 10.046 107.717 9.78179 107.941 9.56711C108.181 9.33592 108.465 9.22033 108.791 9.22033C109.118 9.22033 109.392 9.33592 109.616 9.56711C109.856 9.78179 109.977 10.046 109.977 10.3598C109.977 10.6735 109.856 10.946 109.616 11.1772C109.392 11.3919 109.118 11.4992 108.791 11.4992ZM107.734 25.6679V13.2827H109.899V25.6679H107.734Z" fill="white"/>
<path d="M118.047 25.7918C117.171 25.7918 116.337 25.6266 115.547 25.2963C114.756 24.9661 114.061 24.5119 113.459 23.934C112.858 23.356 112.385 22.6872 112.042 21.9276C111.698 21.1679 111.526 20.367 111.526 19.5248C111.526 18.6661 111.698 17.8487 112.042 17.0726C112.385 16.2964 112.858 15.6194 113.459 15.0414C114.061 14.4634 114.756 14.0175 115.547 13.7038C116.337 13.3735 117.171 13.2084 118.047 13.2084C118.941 13.2084 119.791 13.3735 120.599 13.7038C121.406 14.0175 122.111 14.4634 122.712 15.0414C123.314 15.6194 123.778 16.2964 124.104 17.0726C124.448 17.8487 124.62 18.6661 124.62 19.5248C124.62 20.367 124.448 21.1679 124.104 21.9276C123.778 22.6872 123.314 23.356 122.712 23.934C122.111 24.5119 121.406 24.9661 120.599 25.2963C119.791 25.6266 118.941 25.7918 118.047 25.7918ZM118.047 15.4129C116.896 15.4129 115.908 15.8093 115.083 16.6019C114.688 16.9817 114.378 17.4276 114.155 17.9395C113.932 18.4514 113.82 18.9799 113.82 19.5248C113.82 20.0698 113.932 20.59 114.155 21.0854C114.378 21.5808 114.688 22.0184 115.083 22.3982C115.478 22.778 115.925 23.0753 116.423 23.2899C116.939 23.5046 117.48 23.612 118.047 23.612C118.614 23.612 119.164 23.5046 119.697 23.2899C120.229 23.0753 120.685 22.778 121.063 22.3982C121.441 22.0184 121.741 21.5808 121.965 21.0854C122.188 20.59 122.3 20.0698 122.3 19.5248C122.3 18.9799 122.188 18.4514 121.965 17.9395C121.741 17.4276 121.441 16.9817 121.063 16.6019C120.685 16.2221 120.229 15.9331 119.697 15.735C119.181 15.5203 118.631 15.4129 118.047 15.4129Z" fill="white"/>
<path d="M134.901 25.6679V18.2368C134.901 17.4937 134.618 16.8496 134.05 16.3047C133.501 15.7762 132.83 15.512 132.04 15.512C131.267 15.512 130.597 15.7845 130.03 16.3294C129.772 16.5771 129.566 16.8744 129.411 17.2212C129.256 17.5515 129.179 17.89 129.179 18.2368V25.6679H126.937V13.5799H129.179V14.5955C129.506 14.2157 129.935 13.9019 130.468 13.6542C131 13.4065 131.525 13.2827 132.04 13.2827C132.727 13.2827 133.38 13.4148 133.999 13.679C134.635 13.9267 135.193 14.2818 135.674 14.7441C136.138 15.19 136.499 15.7184 136.757 16.3294C137.032 16.9239 137.169 17.5597 137.169 18.2368V25.6679H134.901Z" fill="white"/>
<rect x="172" y="7.5" width="48" height="20" rx="1.8375" fill="#FB9C2D"/>
<path d="M185.379 21.5H180.711V13.46H185.211C185.731 13.46 186.171 13.536 186.531 13.688C186.899 13.84 187.179 14.064 187.371 14.36C187.571 14.656 187.671 15.016 187.671 15.44C187.671 15.912 187.531 16.312 187.251 16.64C186.979 16.968 186.535 17.168 185.919 17.24V17.324C186.607 17.404 187.119 17.62 187.455 17.972C187.791 18.316 187.959 18.752 187.959 19.28C187.959 19.736 187.859 20.132 187.659 20.468C187.459 20.804 187.167 21.06 186.783 21.236C186.399 21.412 185.931 21.5 185.379 21.5ZM181.995 17.9V20.336H185.235C185.715 20.336 186.071 20.24 186.303 20.048C186.543 19.848 186.663 19.532 186.663 19.1C186.663 18.676 186.543 18.372 186.303 18.188C186.071 17.996 185.715 17.9 185.235 17.9H181.995ZM181.995 14.624V16.832H185.031C185.487 16.832 185.827 16.744 186.051 16.568C186.275 16.384 186.387 16.104 186.387 15.728C186.387 15.352 186.279 15.076 186.063 14.9C185.847 14.716 185.515 14.624 185.067 14.624H181.995ZM189.854 21.5H188.558V13.46H189.854V21.5ZM194.99 21.5H188.954V20.336H194.99V21.5ZM194.81 18.032H188.954V16.88H194.81V18.032ZM194.99 14.624H188.954V13.46H194.99V14.624ZM199.755 21.5H198.471V13.46H199.755V21.5ZM202.911 14.624H195.303V13.46H202.911V14.624ZM204.269 21.5H202.829L206.417 13.46H208.241L211.829 21.5H210.365L207.833 15.8L207.365 14.66H207.269L206.801 15.8L204.269 21.5ZM209.969 19.412H204.605V18.248H209.969V19.412Z" fill="black"/>
</svg>
