<svg width="216" height="109" viewBox="0 0 216 109" fill="none" xmlns="http://www.w3.org/2000/svg">
<ellipse cx="108.323" cy="31.8969" rx="6.54653" ry="6.36467" fill="#FB9C2D"/>
<path d="M97.1963 20.693C100.545 18.3455 104.07 19.3434 105.414 20.1358C87.4884 33.8732 86.3417 45.7238 90.0117 49.4982C92.7546 52.3191 99.8748 50.4191 102.811 48.988L107.673 52.0584C105.066 53.2379 92.6149 59.5752 85.9133 52.2003C77.3338 42.7589 93.0108 23.6273 97.1963 20.693Z" fill="#FB9C2D"/>
<path d="M126.833 16.2653C130.987 25.5248 118.534 39.099 110.893 44.7531C111.856 45.7435 114.751 47.0473 118.624 44.3389C123.466 40.9535 138.887 22.0666 130.15 12.7601C123.161 5.31483 109.888 11.6002 104.061 15.6883C105.523 16.2911 107.708 17.7231 108.682 18.349C118.91 11.6243 125.211 13.954 126.833 16.2653Z" fill="#FB9C2D"/>
<path d="M95.906 42.9552C93.4915 39.6999 94.5179 36.2727 95.3329 34.9661C109.463 52.3935 121.652 53.5082 125.534 49.9403C128.436 47.2735 126.481 40.3511 125.01 37.4967L128.276 32.9739C129.489 35.5085 135.899 47.4093 128.314 53.9248C118.602 62.266 98.9242 47.0244 95.906 42.9552Z" fill="#FB9C2D"/>
<path d="M91.3518 14.142C100.876 10.1028 114.838 22.2099 120.654 29.6388C121.672 28.7025 123.013 25.8885 120.228 22.1227C116.745 17.4154 97.319 2.42304 87.7465 10.9167C81.6575 16.3194 84.3979 25.5784 87.8901 31.9933C88.7092 30.7281 90.2067 28.4387 90.9307 27.4744C87.3149 20.0677 89.3401 15.4761 91.3518 14.142Z" fill="#FB9C2D"/>
<path d="M138.364 32.1915C138.364 48.4104 124.84 61.5583 108.158 61.5583C91.4758 61.5583 77.9521 48.4104 77.9521 32.1915C77.9521 15.9727 91.4758 2.82471 108.158 2.82471C124.84 2.82471 138.364 15.9727 138.364 32.1915ZM81.3751 32.1915C81.3751 46.5724 93.3663 58.2304 108.158 58.2304C122.95 58.2304 134.941 46.5724 134.941 32.1915C134.941 17.8106 122.95 6.1526 108.158 6.1526C93.3663 6.1526 81.3751 17.8106 81.3751 32.1915Z" fill="#FB9C2D"/>
<rect x="0.54541" y="80.5352" width="29.2359" height="28.0966" rx="2.24467" fill="#FB9C2D"/>
<path d="M12.7992 102.909C11.6884 102.909 10.7298 102.644 9.9234 102.114C9.12524 101.577 8.5081 100.814 8.07199 99.8252C7.64412 98.8288 7.43018 97.6426 7.43018 96.2667C7.43018 94.8986 7.64823 93.7243 8.08434 92.7438C8.52045 91.7553 9.14169 90.9961 9.94808 90.4663C10.7627 89.9365 11.7254 89.6716 12.8363 89.6716C13.4863 89.6716 14.0746 89.7783 14.6013 89.9919C15.1361 90.1975 15.5969 90.4821 15.9837 90.8459C16.3704 91.2097 16.6666 91.6327 16.8723 92.1151H16.9464V87.3586C16.9464 86.6785 17.1356 86.1684 17.5141 85.8284C17.9009 85.4884 18.3905 85.3184 18.9829 85.3184C19.5754 85.3184 20.0608 85.4884 20.4394 85.8284C20.8261 86.1684 21.0195 86.6785 21.0195 87.3586V100.976C21.0195 101.64 20.8302 102.142 20.4517 102.482C20.0732 102.814 19.5877 102.98 18.9953 102.98C18.4028 102.98 17.9132 102.814 17.5265 102.482C17.1397 102.15 16.9464 101.648 16.9464 100.976V100.466H16.8723C16.6995 100.932 16.4198 101.351 16.033 101.723C15.6463 102.087 15.1814 102.375 14.6383 102.589C14.0952 102.802 13.4822 102.909 12.7992 102.909ZM14.2804 99.8133C14.8317 99.8133 15.3089 99.6749 15.7121 99.3982C16.1153 99.1135 16.4239 98.7062 16.6378 98.1764C16.86 97.6466 16.9711 97.0219 16.9711 96.3023C16.9711 95.5748 16.86 94.9461 16.6378 94.4163C16.4239 93.8864 16.1153 93.4792 15.7121 93.1945C15.3089 92.9019 14.8317 92.7556 14.2804 92.7556C13.7208 92.7556 13.2395 92.9019 12.8363 93.1945C12.4413 93.4792 12.1327 93.8864 11.9106 94.4163C11.6966 94.9382 11.5897 95.5629 11.5897 96.2904C11.5897 97.0179 11.6966 97.6466 11.9106 98.1764C12.1245 98.7062 12.4331 99.1135 12.8363 99.3982C13.2395 99.6749 13.7208 99.8133 14.2804 99.8133Z" fill="black"/>
<path d="M138.679 104.561L136.097 97.4803H129.548L126.966 104.561H123.975L131.248 84.4687H134.397L141.67 104.561H138.679ZM132.822 88.3722L130.429 94.9385H135.184L132.822 88.3722Z" fill="white"/>
<path d="M144.491 104.561V84.4385H147.136V104.561H144.491Z" fill="white"/>
<path d="M40.242 87.1618V93.1532H46.13V95.8765H40.242V104.561H37.5342V84.4385H48.9952V87.1618H40.242Z" fill="white"/>
<path d="M59.0642 104.47V103.199C58.6444 103.623 58.1091 103.976 57.4584 104.258C56.8287 104.541 56.199 104.682 55.5692 104.682C54.7296 104.682 53.9214 104.531 53.1448 104.228C52.3891 103.905 51.7174 103.462 51.1297 102.897C50.5629 102.332 50.1116 101.686 49.7757 100.96C49.4609 100.214 49.3034 99.4269 49.3034 98.5999V89.4313H52.0742V98.5999C52.0742 99.5278 52.4206 100.325 53.1133 100.99C53.806 101.656 54.6246 101.989 55.5692 101.989C56.01 101.989 56.4509 101.898 56.8917 101.717C57.3325 101.535 57.7103 101.293 58.0252 100.99C58.7179 100.325 59.0642 99.5278 59.0642 98.5999V89.4313H61.8035V104.47H59.0642Z" fill="white"/>
<path d="M72.5889 93.9399C72.5259 93.5768 72.3894 93.2339 72.1795 92.9111C71.7807 92.2454 70.9935 91.9125 69.8181 91.9125C69.1883 91.9125 68.7055 91.9831 68.3697 92.1244C67.9289 92.2857 67.593 92.5177 67.3621 92.8203C67.1522 93.1229 67.0472 93.4558 67.0472 93.8189C67.0472 94.2627 67.2152 94.6661 67.551 95.0292C67.9079 95.4125 68.4851 95.6143 69.2828 95.6344C70.6892 95.695 71.8227 95.8563 72.6833 96.1186C73.5649 96.3808 74.2366 96.8347 74.6984 97.4803C75.1812 98.1258 75.4226 99.0336 75.4226 100.204C75.4226 101.394 74.9503 102.423 74.0057 103.29C73.5439 103.714 72.9982 104.057 72.3684 104.319C71.7597 104.581 71.1195 104.712 70.4478 104.712H69.9755C68.2962 104.712 66.9423 104.248 65.9137 103.32C65.0741 102.574 64.5493 101.525 64.3394 100.173H67.1417C67.2467 100.657 67.4566 101.051 67.7714 101.353C68.2542 101.797 68.9259 102.019 69.7866 102.019C70.0175 102.019 70.1854 102.009 70.2903 101.989C71.025 101.949 71.6023 101.757 72.0221 101.414C72.4419 101.051 72.6518 100.607 72.6518 100.083C72.6518 99.3563 72.4209 98.8823 71.9591 98.6604C71.4973 98.4385 70.6052 98.3275 69.2828 98.3275C67.6245 98.3275 66.3545 97.8232 65.4729 96.8145C64.7592 96.048 64.4024 95.0797 64.4024 93.9097C64.4024 93.6474 64.4129 93.4457 64.4339 93.3045C64.6018 91.9932 65.1581 90.9947 66.1027 90.3088C67.0682 89.6027 68.3382 89.2497 69.9125 89.2497C71.067 89.2497 72.0746 89.4918 72.9352 89.9759C73.5439 90.339 74.0687 90.8434 74.5095 91.4889C74.9293 92.1344 75.2022 92.9414 75.3282 93.9097L75.2652 93.9399H72.5889Z" fill="white"/>
<path d="M79.6935 87.2526C79.2946 87.2526 78.9483 87.1215 78.6544 86.8592C78.3815 86.5768 78.2451 86.244 78.2451 85.8607C78.2451 85.4774 78.3815 85.1546 78.6544 84.8924C78.9483 84.6099 79.2946 84.4687 79.6935 84.4687C80.0923 84.4687 80.4281 84.6099 80.701 84.8924C80.9949 85.1546 81.1418 85.4774 81.1418 85.8607C81.1418 86.244 80.9949 86.5768 80.701 86.8592C80.4281 87.1215 80.0923 87.2526 79.6935 87.2526ZM78.4025 104.561V89.4313H81.0474V104.561H78.4025Z" fill="white"/>
<path d="M91.0005 104.712C89.93 104.712 88.9119 104.511 87.9463 104.107C86.9808 103.704 86.1306 103.149 85.3959 102.443C84.6613 101.737 84.084 100.92 83.6642 99.9918C83.2444 99.0638 83.0345 98.0854 83.0345 97.0566C83.0345 96.0076 83.2444 95.0091 83.6642 94.0609C84.084 93.1128 84.6613 92.2857 85.3959 91.5797C86.1306 90.8736 86.9808 90.329 87.9463 89.9457C88.9119 89.5422 89.93 89.3405 91.0005 89.3405C92.092 89.3405 93.1311 89.5422 94.1177 89.9457C95.1042 90.329 95.9649 90.8736 96.6995 91.5797C97.4342 92.2857 98.001 93.1128 98.3998 94.0609C98.8196 95.0091 99.0295 96.0076 99.0295 97.0566C99.0295 98.0854 98.8196 99.0638 98.3998 99.9918C98.001 100.92 97.4342 101.737 96.6995 102.443C95.9649 103.149 95.1042 103.704 94.1177 104.107C93.1311 104.511 92.092 104.712 91.0005 104.712ZM91.0005 92.0336C89.5941 92.0336 88.3871 92.5177 87.3796 93.486C86.8968 93.95 86.519 94.4947 86.2461 95.12C85.9732 95.7454 85.8367 96.3909 85.8367 97.0566C85.8367 97.7223 85.9732 98.3578 86.2461 98.963C86.519 99.5681 86.8968 100.103 87.3796 100.567C87.8624 101.031 88.4081 101.394 89.0169 101.656C89.6466 101.918 90.3078 102.049 91.0005 102.049C91.6932 102.049 92.3649 101.918 93.0156 101.656C93.6664 101.394 94.2226 101.031 94.6844 100.567C95.1462 100.103 95.5136 99.5681 95.7864 98.963C96.0593 98.3578 96.1958 97.7223 96.1958 97.0566C96.1958 96.3909 96.0593 95.7454 95.7864 95.12C95.5136 94.4947 95.1462 93.95 94.6844 93.486C94.2226 93.022 93.6664 92.669 93.0156 92.4269C92.3859 92.1647 91.7142 92.0336 91.0005 92.0336Z" fill="white"/>
<path d="M111.589 104.561V95.4831C111.589 94.5754 111.243 93.7886 110.55 93.1229C109.878 92.4774 109.06 92.1546 108.094 92.1546C107.15 92.1546 106.331 92.4875 105.638 93.1532C105.323 93.4558 105.071 93.8189 104.883 94.2425C104.694 94.646 104.599 95.0595 104.599 95.4831V104.561H101.86V89.7944H104.599V91.035C104.998 90.571 105.523 90.1878 106.174 89.8852C106.824 89.5826 107.464 89.4313 108.094 89.4313C108.934 89.4313 109.731 89.5927 110.487 89.9154C111.264 90.218 111.946 90.6517 112.534 91.2166C113.101 91.7612 113.541 92.4068 113.856 93.1532C114.192 93.8794 114.36 94.656 114.36 95.4831V104.561H111.589Z" fill="white"/>
<rect x="156.909" y="82.197" width="58.5455" height="24.7727" rx="2.24467" fill="#FB9C2D"/>
<path d="M173.207 99.0833H167.505V89.2617H173.002C173.637 89.2617 174.175 89.3545 174.614 89.5402C175.064 89.7259 175.406 89.9995 175.64 90.3611C175.885 90.7227 176.007 91.1625 176.007 91.6804C176.007 92.257 175.836 92.7456 175.494 93.1463C175.162 93.547 174.619 93.7913 173.867 93.8793V93.9819C174.707 94.0796 175.333 94.3435 175.743 94.7735C176.154 95.1937 176.359 95.7263 176.359 96.3713C176.359 96.9284 176.237 97.4121 175.992 97.8226C175.748 98.233 175.391 98.5458 174.922 98.7608C174.453 98.9758 173.881 99.0833 173.207 99.0833ZM169.073 94.6855V97.6613H173.031C173.618 97.6613 174.052 97.544 174.336 97.3095C174.629 97.0652 174.776 96.6792 174.776 96.1514C174.776 95.6335 174.629 95.2621 174.336 95.0373C174.052 94.8028 173.618 94.6855 173.031 94.6855H169.073ZM169.073 90.6836V93.3809H172.782C173.339 93.3809 173.754 93.2734 174.028 93.0584C174.302 92.8336 174.438 92.4915 174.438 92.0322C174.438 91.5729 174.306 91.2358 174.043 91.0208C173.779 90.796 173.373 90.6836 172.826 90.6836H169.073ZM178.674 99.0833H177.091V89.2617H178.674V99.0833ZM184.948 99.0833H177.575V97.6613H184.948V99.0833ZM184.728 94.8468H177.575V93.4395H184.728V94.8468ZM184.948 90.6836H177.575V89.2617H184.948V90.6836ZM190.77 99.0833H189.201V89.2617H190.77V99.0833ZM194.625 90.6836H185.331V89.2617H194.625V90.6836ZM196.284 99.0833H194.525L198.908 89.2617H201.136L205.519 99.0833H203.731L200.638 92.1202L200.066 90.7276H199.949L199.377 92.1202L196.284 99.0833ZM203.247 96.5326H196.694V95.1106H203.247V96.5326Z" fill="black"/>
</svg>
