<svg width="48" height="49" viewBox="0 0 48 49" fill="none" xmlns="http://www.w3.org/2000/svg">
<g filter="url(#filter0_i_83_92)">
<rect y="0.631592" width="48" height="48" rx="24" fill="#1A56CB" fill-opacity="0.01"/>
<rect x="0.369531" y="1.00112" width="47.2609" height="47.2609" rx="23.6305" stroke="url(#paint0_linear_83_92)" stroke-width="0.739062"/>
<path d="M22.6406 32.366V29.5535L25.4531 28.1472V25.3347" stroke="#F4F4F4" stroke-miterlimit="10" stroke-linecap="round" stroke-linejoin="round"/>
<mask id="mask0_83_92" style="mask-type:luminance" maskUnits="userSpaceOnUse" x="12" y="12" width="24" height="25">
<path d="M12 12.6316H36V36.6316H12V12.6316Z" fill="white"/>
</mask>
<g mask="url(#mask0_83_92)">
<path d="M33.8906 32.366V29.5535L31.0781 28.1472V25.3347" stroke="#F4F4F4" stroke-miterlimit="10" stroke-linecap="round" stroke-linejoin="round"/>
</g>
<path d="M28.2656 25.3347V32.366" stroke="#F4F4F4" stroke-miterlimit="10" stroke-linecap="round" stroke-linejoin="round"/>
<mask id="mask1_83_92" style="mask-type:luminance" maskUnits="userSpaceOnUse" x="12" y="12" width="24" height="25">
<path d="M12 12.6316H36V36.6316H12V12.6316Z" fill="white"/>
</mask>
<g mask="url(#mask1_83_92)">
<path d="M33.8437 18.3035H23.7542C23.127 15.8816 20.9462 14.0847 18.3281 14.0847C15.2215 14.0847 12.7031 16.6031 12.7031 19.7097C12.7031 22.8164 15.2215 25.3347 18.3281 25.3347C20.9462 25.3347 23.127 23.5379 23.7542 21.116H23.9531L25.4062 22.5222L26.8125 21.116L28.2187 22.5222L29.625 21.116L31.0312 22.5222L32.4375 21.116L33.8437 22.5222L35.2969 20.4128L33.8437 18.3035Z" stroke="#F4F4F4" stroke-miterlimit="10" stroke-linecap="round" stroke-linejoin="round"/>
<path d="M18.3281 19.7097C18.3281 20.4864 17.6985 21.116 16.9219 21.116C16.1452 21.116 15.5156 20.4864 15.5156 19.7097C15.5156 18.933 16.1452 18.3035 16.9219 18.3035C17.6985 18.3035 18.3281 18.933 18.3281 19.7097Z" stroke="#F4F4F4" stroke-miterlimit="10" stroke-linecap="round" stroke-linejoin="round"/>
<path d="M24.0469 33.7722C24.0469 34.5489 23.4173 35.1785 22.6406 35.1785C21.864 35.1785 21.2344 34.5489 21.2344 33.7722C21.2344 32.9955 21.864 32.366 22.6406 32.366C23.4173 32.366 24.0469 32.9955 24.0469 33.7722Z" stroke="#F4F4F4" stroke-miterlimit="10" stroke-linecap="round" stroke-linejoin="round"/>
<path d="M29.6719 33.7722C29.6719 34.5489 29.0423 35.1785 28.2656 35.1785C27.489 35.1785 26.8594 34.5489 26.8594 33.7722C26.8594 32.9955 27.489 32.366 28.2656 32.366C29.0423 32.366 29.6719 32.9955 29.6719 33.7722Z" stroke="#F4F4F4" stroke-miterlimit="10" stroke-linecap="round" stroke-linejoin="round"/>
<path d="M35.2969 33.7722C35.2969 34.5489 34.6673 35.1785 33.8906 35.1785C33.114 35.1785 32.4844 34.5489 32.4844 33.7722C32.4844 32.9955 33.114 32.366 33.8906 32.366C34.6673 32.366 35.2969 32.9955 35.2969 33.7722Z" stroke="#F4F4F4" stroke-miterlimit="10" stroke-linecap="round" stroke-linejoin="round"/>
</g>
</g>
<defs>
<filter id="filter0_i_83_92" x="-12" y="-11.3684" width="72" height="72" filterUnits="userSpaceOnUse" color-interpolation-filters="sRGB">
<feFlood flood-opacity="0" result="BackgroundImageFix"/>
<feBlend mode="normal" in="SourceGraphic" in2="BackgroundImageFix" result="shape"/>
<feColorMatrix in="SourceAlpha" type="matrix" values="0 0 0 0 0 0 0 0 0 0 0 0 0 0 0 0 0 0 127 0" result="hardAlpha"/>
<feOffset/>
<feGaussianBlur stdDeviation="11.0859"/>
<feComposite in2="hardAlpha" operator="arithmetic" k2="-1" k3="1"/>
<feColorMatrix type="matrix" values="0 0 0 0 0.202183 0 0 0 0 0.437991 0 0 0 0 0.897817 0 0 0 0.3 0"/>
<feBlend mode="normal" in2="shape" result="effect1_innerShadow_83_92"/>
</filter>
<linearGradient id="paint0_linear_83_92" x1="48" y1="0.631596" x2="-3.36346" y2="4.55074" gradientUnits="userSpaceOnUse">
<stop stop-color="#1A56CB" stop-opacity="0"/>
<stop offset="1" stop-color="#1A56CB"/>
</linearGradient>
</defs>
</svg>
